<?xml version="1.0" encoding="UTF-8"?>
<svg width="32px" height="32px" viewBox="0 0 32 32" version="1.1" xmlns="http://www.w3.org/2000/svg" xmlns:xlink="http://www.w3.org/1999/xlink">
    <title>begin</title>
    <g id="Icons" stroke="none" stroke-width="1" fill="none" fill-rule="evenodd">
        <g id="Versed" transform="translate(32.000000, 0.000000)" stroke="#FFFFFF" stroke-width="2">
            <g id="Group">
                <circle id="Oval" cx="16" cy="16" r="15"></circle>
            </g>
        </g>
        <g id="Begin" transform="translate(-0.000000, 0.000000)" stroke="#FFFFFF" stroke-width="2">
            <g id="Group">
                <path d="M11.8527941,12.9375 C10.1157257,13.3310976 9.24719153,13.5278928 9.04055236,14.1933374 C8.8339132,14.8587537 9.42602692,15.5521977 10.6102473,16.9389443 L10.9166184,17.2977247 C11.253138,17.6917961 11.4213943,17.8888318 11.4970866,18.1326157 C11.5727861,18.3763997 11.5473481,18.639279 11.4964652,19.1651083 L11.4501514,19.643765 C11.2711112,21.4940335 11.1815911,22.4191678 11.7225747,22.830425 C12.2635583,23.2416822 13.0767675,22.8667061 14.7031999,22.1168247 L15.1239641,21.9227594 C15.5861126,21.7096695 15.8171869,21.6030892 16.0621737,21.6030892 C16.3071604,21.6030892 16.5382347,21.7096695 17.0003833,21.9227594 L17.4211475,22.1168247 C19.0475658,22.8667061 19.8607749,23.2416822 20.4018079,22.830425 C20.9427703,22.4191678 20.853222,21.4940335 20.6741959,19.643765 M21.3693582,16.875 C22.5686018,15.5240433 23.1681879,14.848496 22.9589335,14.2002532 C22.7496791,13.5519827 21.8701098,13.3602665 20.1111143,12.9768271 L19.6559896,12.8776274 C19.1560961,12.7686649 18.9062209,12.714187 18.7055484,12.56742 C18.5048044,12.420653 18.376148,12.1982081 18.1186921,11.7533322 L17.8843358,11.348307 C16.9785203,9.78276669 16.5256126,9 15.8484322,9 C15.1712518,9 14.7183441,9.78277358 13.8125,11.3483139" id="beginners" stroke-linecap="round"></path>
                <circle id="Oval" cx="16" cy="16" r="15"></circle>
            </g>
        </g>
    </g>
</svg>