<?xml version="1.0" encoding="UTF-8"?>
<svg width="32px" height="32px" viewBox="0 0 32 32" version="1.1" xmlns="http://www.w3.org/2000/svg" xmlns:xlink="http://www.w3.org/1999/xlink">
    <title>begin</title>
    <g id="Icon" stroke="none" stroke-width="1" fill="none" fill-rule="evenodd" stroke-linecap="round">
        <g id="Begin" stroke="#FFFFFF" stroke-width="2">
            <g id="Group" transform="translate(9.000000, 9.000000)">
                <path d="M2.85279412,3.9375 C1.11572572,4.33109756 0.247191526,4.5278928 0.0405523645,5.19333739 C-0.166086797,5.85875369 0.426026915,6.55219772 1.61024728,7.93894432 L1.91661844,8.2977247 C2.25313801,8.6917961 2.42139427,8.8888318 2.49708663,9.13261575 C2.57278605,9.37639969 2.54734811,9.63927898 2.49646516,10.1651083 L2.45015143,10.643765 C2.27111124,12.4940335 2.18159114,13.4191678 2.72257473,13.830425 C3.26355831,14.2416822 4.07676745,13.8667061 5.70319986,13.1168247 L6.12396409,12.9227594 C6.58611264,12.7096695 6.81718692,12.6030892 7.06217368,12.6030892 C7.30716043,12.6030892 7.53823471,12.7096695 8.00038327,12.9227594 L8.42114749,13.1168247 C10.0475658,13.8667061 10.8607749,14.2416822 11.4018079,13.830425 C11.9427703,13.4191678 11.853222,12.4940335 11.6741959,10.643765 M12.3693582,7.875 C13.5686018,6.5240433 14.1681879,5.84849605 13.9589335,5.20025317 C13.7496791,4.55198274 12.8701098,4.36026649 11.1111143,3.97682712 L10.6559896,3.87762743 C10.1560961,3.76866486 9.90622093,3.71418702 9.70554841,3.56741999 C9.50480436,3.42065296 9.37614796,3.1982081 9.11869212,2.75333216 L8.88433578,2.34830696 C7.97852031,0.782766691 7.52561258,0 6.8484322,0 C6.17125181,0 5.71834408,0.782773581 4.8125,2.34831385" id="beginners"></path>
            </g>
        </g>
    </g>
</svg>