<?xml version="1.0" encoding="UTF-8"?>
<svg width="80px" height="80px" viewBox="0 0 80 80" version="1.1" xmlns="http://www.w3.org/2000/svg" xmlns:xlink="http://www.w3.org/1999/xlink">
    <title>cloudinary</title>
    <g id="Logo" stroke="none" stroke-width="1" fill="none" fill-rule="evenodd">
        <g id="Cloudinary" fill-rule="nonzero">
            <path d="M80,64 L80,16 C80,7.163444 72.836556,-3.55271368e-15 64,0 L16,0 C7.163444,1.77635684e-15 0,7.163444 0,16 L0,64 C1.77635684e-15,72.836556 7.163444,80 16,80 L64,80 C72.836556,80 80,72.836556 80,64 Z" id="Oval" fill="#007DD6"></path>
            <g id="Group" transform="translate(14.000000, 22.000000)" fill="#FFFFFF">
                <path d="M42.0823519,11.7857143 C40.9875466,8.40926641 38.797936,5.41505792 35.8355216,3.31274131 C32.8731072,1.21042471 29.33109,0.0637065637 25.6602722,-7.10542736e-15 C22.5690573,-7.10542736e-15 19.5422426,0.764478764 16.8374295,2.35714286 C14.1970166,3.88610039 12.007406,6.11583012 10.5261988,8.79150579 C7.82138572,9.23745174 5.37417385,10.5752896 3.50656479,12.4864865 C1.63895573,14.3976834 0.415349799,16.8822394 0.0933482371,19.5579151 C-0.228653325,22.2335907 0.286549174,24.9092664 1.57455542,27.2027027 C2.92696198,29.5598456 4.98777198,31.4073359 7.43498385,32.4903475 L7.75698541,32.6177606 L7.75698541,32.6177606 L7.75698541,29.0501931 C6.08257729,28.030888 4.73017073,26.5019305 3.95736698,24.7181467 C3.18456323,22.9343629 2.99136229,20.9594595 3.44216448,19.0482625 C3.89296667,17.1370656 4.92337166,15.4169884 6.40457885,14.1428571 C7.88578603,12.8687259 9.75339509,12.0405405 11.7498048,11.8494208 L12.6514091,11.8494208 C12.6514091,11.7857143 13.037811,10.957529 13.037811,10.957529 C14.1326163,8.66409266 15.9358251,6.68918919 18.189836,5.28764479 C20.4438469,3.94980695 23.0198594,3.18532819 25.6602722,3.18532819 C28.8158876,3.18532819 31.8427022,4.26833977 34.2899141,6.17953668 C36.737126,8.09073359 38.4759344,10.7027027 39.2487382,13.6969112 L39.5707397,14.9073359 L40.858746,14.9073359 C42.919556,14.9073359 44.9159656,15.7992278 46.3971728,17.2007722 C47.87838,18.6660232 48.6511838,20.5772201 48.7155841,22.6158301 C48.7155841,25.546332 46.9767756,27.9671815 44.0143613,29.2413127 L44.0143613,32.6177606 L44.2075622,32.6177606 C48.9731853,31.0250965 52,27.2027027 52,22.6158301 C52,19.9401544 50.969595,17.3918919 49.1663863,15.4169884 C47.3631775,13.4420849 44.9159656,12.1679537 42.2111525,11.7857143 L42.0823519,11.7857143 Z" id="Path"></path>
                <path d="M19.3490416,32.1718147 L20.0574451,32.8725869 C20.0574451,32.8725869 20.0574451,32.8725869 20.0574451,32.9362934 C20.0574451,32.9362934 20.0574451,32.9362934 20.0574451,33 C20.0574451,33 20.0574451,33 20.0574451,33 C20.0574451,33 20.0574451,33 19.9930448,33 L14.3902176,33 C13.6818141,33 13.037811,32.7451737 12.5870088,32.2355212 C12.0718063,31.7895753 11.8142051,31.1525097 11.8142051,30.4517375 L11.8142051,19.8127413 C11.8142051,19.8127413 11.8142051,19.7490347 11.8142051,19.6853282 C11.8142051,19.6853282 11.8142051,19.6853282 11.6854045,19.6853282 L10.4617985,19.6853282 C10.4617985,19.6853282 10.4617985,19.6853282 10.3973982,19.6853282 C10.3973982,19.6853282 10.3973982,19.6853282 10.3973982,19.6853282 C10.3973982,19.6853282 10.3973982,19.6853282 10.3973982,19.6216216 C10.3973982,19.6216216 10.3973982,19.6216216 10.3973982,19.5579151 L15.1630213,14.9073359 C15.1630213,14.9073359 15.1630213,14.9073359 15.1630213,14.9073359 C15.1630213,14.9073359 15.1630213,14.9073359 15.1630213,14.9073359 C15.1630213,14.9073359 15.1630213,14.9073359 15.1630213,14.9073359 C15.1630213,14.9073359 15.1630213,14.9073359 15.1630213,14.9073359 L19.9286444,19.5579151 C19.9286444,19.5579151 19.9286444,19.5579151 19.9286444,19.6216216 C19.9286444,19.6216216 19.9286444,19.6216216 19.9286444,19.6853282 C19.9286444,19.6853282 19.9286444,19.6853282 19.9286444,19.6853282 C19.9286444,19.6853282 19.9286444,19.6853282 19.8642441,19.6853282 L18.6406382,19.6853282 C18.6406382,19.6853282 18.5762379,19.6853282 18.5118376,19.6853282 C18.5118376,19.6853282 18.5118376,19.6853282 18.5118376,19.8127413 L18.5118376,30.3243243 C18.5118376,30.96139 18.7694388,31.5984556 19.2846413,32.1081081 L19.3490416,32.1718147 Z" id="Path"></path>
                <path d="M29.9106929,32.1718147 L30.6190963,32.8725869 C30.6190963,32.8725869 30.6190963,32.8725869 30.6190963,32.9362934 C30.6190963,32.9362934 30.6190963,32.9362934 30.6190963,33 C30.6190963,33 30.6190963,33 30.6190963,33 C30.6190963,33 30.6190963,33 30.554696,33 L24.9518688,33 C24.2434654,33 23.5994622,32.7451737 23.1486601,32.2355212 C22.6334576,31.7895753 22.3758563,31.1525097 22.3758563,30.4517375 L22.3758563,22.488417 C22.3758563,22.488417 22.3758563,22.4247104 22.3758563,22.3610039 C22.3758563,22.3610039 22.3758563,22.3610039 22.2470557,22.3610039 L21.0234498,22.3610039 C21.0234498,22.3610039 21.0234498,22.3610039 20.9590494,22.3610039 C20.9590494,22.3610039 20.9590494,22.3610039 20.9590494,22.3610039 C20.9590494,22.3610039 20.9590494,22.3610039 20.9590494,22.2972973 C20.9590494,22.2972973 20.9590494,22.2972973 20.9590494,22.2335907 L25.7246726,17.5830116 C25.7246726,17.5830116 25.7246726,17.5830116 25.7246726,17.5830116 C25.7246726,17.5830116 25.7246726,17.5830116 25.7246726,17.5830116 C25.7246726,17.5830116 25.7246726,17.5830116 25.7246726,17.5830116 C25.7246726,17.5830116 25.7246726,17.5830116 25.7246726,17.5830116 L30.4902957,22.2335907 C30.4902957,22.2335907 30.4902957,22.2335907 30.4902957,22.2972973 C30.4902957,22.2972973 30.4902957,22.2972973 30.4902957,22.3610039 C30.4902957,22.3610039 30.4902957,22.3610039 30.4902957,22.3610039 C30.4902957,22.3610039 30.4902957,22.3610039 30.4258954,22.3610039 L29.2022894,22.3610039 C29.2022894,22.3610039 29.1378891,22.3610039 29.0734888,22.3610039 C29.0734888,22.3610039 29.0734888,22.3610039 29.0734888,22.488417 L29.0734888,30.2606178 C29.0734888,30.8976834 29.33109,31.534749 29.8462925,32.0444015 L29.9106929,32.1718147 Z" id="Path"></path>
                <path d="M40.4723441,32.1718147 L41.1807475,32.8725869 C41.1807475,32.8725869 41.1807475,32.8725869 41.1807475,32.9362934 C41.1807475,32.9362934 41.1807475,32.9362934 41.1807475,33 C41.1807475,33 41.1807475,33 41.1807475,33 C41.1807475,33 41.1807475,33 41.1163472,33 L35.4491197,33 C34.7407163,33 34.0967132,32.7451737 33.645911,32.2355212 C33.1307085,31.7895753 32.8731072,31.1525097 32.8731072,30.4517375 L32.8731072,25.1640927 C32.8731072,25.1640927 32.8731072,25.1003861 32.8731072,25.0366795 C32.8731072,25.0366795 32.8731072,25.0366795 32.7443066,25.0366795 L31.5207007,25.0366795 C31.5207007,25.0366795 31.5207007,25.0366795 31.4563004,25.0366795 C31.4563004,25.0366795 31.4563004,25.0366795 31.4563004,25.0366795 C31.4563004,25.0366795 31.4563004,25.0366795 31.4563004,24.972973 C31.4563004,24.972973 31.4563004,24.972973 31.4563004,24.9092664 L36.2219235,20.2586873 C36.2219235,20.2586873 36.2219235,20.2586873 36.2219235,20.2586873 C36.2219235,20.2586873 36.2219235,20.2586873 36.2219235,20.2586873 C36.2219235,20.2586873 36.2219235,20.2586873 36.2219235,20.2586873 C36.2219235,20.2586873 36.2219235,20.2586873 36.2219235,20.2586873 L40.9875466,24.9092664 C40.9875466,24.9092664 40.9875466,24.9092664 40.9875466,24.972973 C40.9875466,24.972973 40.9875466,24.972973 40.9875466,25.0366795 C40.9875466,25.0366795 40.9875466,25.0366795 40.9875466,25.0366795 C40.9875466,25.0366795 40.9875466,25.0366795 40.9231463,25.0366795 L39.6995403,25.0366795 C39.6995403,25.0366795 39.63514,25.0366795 39.5707397,25.0366795 C39.5707397,25.0366795 39.5707397,25.0366795 39.5707397,25.1640927 L39.5707397,30.2606178 C39.5707397,30.8976834 39.828341,31.534749 40.3435435,32.0444015 L40.4723441,32.1718147 Z" id="Path"></path>
            </g>
        </g>
    </g>
</svg>