<?xml version="1.0" encoding="UTF-8"?>
<svg width="32px" height="32px" viewBox="0 0 32 32" version="1.1" xmlns="http://www.w3.org/2000/svg" xmlns:xlink="http://www.w3.org/1999/xlink">
    <title>expert</title>
    <g id="Icon" stroke="none" stroke-width="1" fill="none" fill-rule="evenodd" stroke-linecap="round">
        <g id="Group" stroke="#FFFFFF" transform="translate(5.000000, 8.000000)">
            <path d="M2.89807657,5 C1.13343566,5.39115285 0.251115201,5.58672576 0.0411960529,6.24803716 C-0.168723095,6.90932044 0.432789247,7.59845736 1.63580676,8.97659063 L1.94704095,9.33314255 C2.28890211,9.72476631 2.45982909,9.92057819 2.53672292,10.1628479 C2.61362393,10.4051177 2.58778221,10.6663642 2.53609159,11.1889275 L2.48904272,11.6646112 C2.30716062,13.5033873 2.21621957,14.4227754 2.7657902,14.8314782 C3.31536083,15.2401811 4.14147805,14.8675341 5.79372684,14.1223103 L6.22116986,13.9294504 C6.69065411,13.717684 6.92539624,13.6117656 7.17427167,13.6117656 C7.42314711,13.6117656 7.65788923,13.717684 8.12737348,13.9294504 L8.5548165,14.1223103 C10.2070509,14.8675341 11.0331682,15.2401811 11.582789,14.8314782 C12.1323381,14.4227754 12.0413684,13.5033873 11.8595006,11.6646112 M12.4026366,9 C13.5774059,7.62759954 14.1647555,6.94132932 13.9597716,6.28279687 C13.7547877,5.62423643 12.8931688,5.42947707 11.1700711,5.03995136 L10.7242347,4.93917707 C10.2345431,4.82848494 9.98976744,4.77314237 9.79319028,4.6240457 C9.59654305,4.47494904 9.47051229,4.24897331 9.21831065,3.79703584 L8.9887371,3.38558168 C8.10140765,1.79519156 7.65774293,1 6.99438256,1 C6.33102219,1 5.88735746,1.79519856 5,3.38558868" id="beginners" stroke-width="2"></path>
            <path d="M13.6666667,10.9729057 L14.0591128,11.1579371 C15.5760707,11.8729111 16.3345497,12.2304317 16.8391704,11.8383188 C17.3437252,11.4462059 17.2602036,10.5641373 17.0932262,8.8 M17.5801214,6.4 C18.6243608,5.30207963 19.1464493,4.75306346 18.9642414,4.2262375 C18.7820335,3.69938915 18.01615,3.54358166 16.4845077,3.23196108 L16.0882086,3.15134166 C15.6529272,3.06278795 15.4353488,3.0185139 15.2606136,2.89923656 C15.085816,2.77995923 14.9737887,2.59917865 14.7496095,2.23762868 L14.5455441,1.90846534 C13.7568068,0.636153247 13.3624382,0 12.7727845,0 C12.1831308,0 11.7887622,0.636158847 11,1.90847094" id="beginners"></path>
            <path d="M19,9.0370991 L19.3311264,9.21056608 C20.6110597,9.88085412 21.0337946,10.0508745 21.4595683,9.68326859 C21.8852865,9.31566273 21.6004555,8.65387868 21.4595683,7 M21.9350911,5 C22.7182706,4.14224971 23.109837,3.71333083 22.973181,3.30174805 C22.8365251,2.89014777 22.2621125,2.76842317 21.1133808,2.5249696 L20.8161564,2.46198567 C20.4896954,2.39280309 20.3265116,2.35821398 20.1954602,2.26502857 C20.064362,2.17184315 19.9803415,2.03060832 19.8122071,1.7481474 L19.6591581,1.49098855 C19.0676051,0.496994724 18.7718286,0 18.3295884,0 C17.8873481,0 17.5915716,0.496999099 17,1.49099292" id="beginners"></path>
        </g>
    </g>
</svg>