<?xml version="1.0" encoding="UTF-8"?>
<svg width="32px" height="32px" viewBox="0 0 32 32" version="1.1" xmlns="http://www.w3.org/2000/svg" xmlns:xlink="http://www.w3.org/1999/xlink">
    <title>expert</title>
    <g id="Icons" stroke="none" stroke-width="1" fill="none" fill-rule="evenodd">
        <g id="Group" transform="translate(-0.000000, 0.000000)" stroke="#FFFFFF">
            <path d="M7.89807657,14 C6.13343566,14.3911529 5.2511152,14.5867258 5.04119605,15.2480372 C4.8312769,15.9093204 5.43278925,16.5984574 6.63580676,17.9765906 L6.94704095,18.3331426 C7.28890211,18.7247663 7.45982909,18.9205782 7.53672292,19.1628479 C7.61362393,19.4051177 7.58778221,19.6663642 7.53609159,20.1889275 L7.48904272,20.6646112 C7.30716062,22.5033873 7.21621957,23.4227754 7.7657902,23.8314782 C8.31536083,24.2401811 9.14147805,23.8675341 10.7937268,23.1223103 L11.2211699,22.9294504 C11.6906541,22.717684 11.9253962,22.6117656 12.1742717,22.6117656 C12.4231471,22.6117656 12.6578892,22.717684 13.1273735,22.9294504 L13.5548165,23.1223103 C15.2070509,23.8675341 16.0331682,24.2401811 16.582789,23.8314782 C17.1323381,23.4227754 17.0413684,22.5033873 16.8595006,20.6646112 M17.4026366,18 C18.5774059,16.6275995 19.1647555,15.9413293 18.9597716,15.2827969 C18.7547877,14.6242364 17.8931688,14.4294771 16.1700711,14.0399514 L15.7242347,13.9391771 C15.2345431,13.8284849 14.9897674,13.7731424 14.7931903,13.6240457 C14.5965431,13.474949 14.4705123,13.2489733 14.2183106,12.7970358 L13.9887371,12.3855817 C13.1014077,10.7951916 12.6577429,10 11.9943826,10 C11.3310222,10 10.8873575,10.7951986 10,12.3855887" id="beginners" stroke-width="2" stroke-linecap="round"></path>
            <path d="M18.6666667,19.9729057 L19.0591128,20.1579371 C20.5760707,20.8729111 21.3345497,21.2304317 21.8391704,20.8383188 C22.3437252,20.4462059 22.2602036,19.5641373 22.0932262,17.8 M22.5801214,15.4 C23.6243608,14.3020796 24.1464493,13.7530635 23.9642414,13.2262375 C23.7820335,12.6993891 23.01615,12.5435817 21.4845077,12.2319611 L21.0882086,12.1513417 C20.6529272,12.062788 20.4353488,12.0185139 20.2606136,11.8992366 C20.085816,11.7799592 19.9737887,11.5991786 19.7496095,11.2376287 L19.5455441,10.9084653 C18.7568068,9.63615325 18.3624382,9 17.7727845,9 C17.1831308,9 16.7887622,9.63615885 16,10.9084709" id="beginners" stroke-linecap="round"></path>
            <path d="M24,18.0370991 L24.3311264,18.2105661 C25.6110597,18.8808541 26.0337946,19.0508745 26.4595683,18.6832686 C26.8852865,18.3156627 26.6004555,17.6538787 26.4595683,16 M26.9350911,14 C27.7182706,13.1422497 28.109837,12.7133308 27.973181,12.301748 C27.8365251,11.8901478 27.2621125,11.7684232 26.1133808,11.5249696 L25.8161564,11.4619857 C25.4896954,11.3928031 25.3265116,11.358214 25.1954602,11.2650286 C25.064362,11.1718431 24.9803415,11.0306083 24.8122071,10.7481474 L24.6591581,10.4909885 C24.0676051,9.49699472 23.7718286,9 23.3295884,9 C22.8873481,9 22.5915716,9.4969991 22,10.4909929" id="beginners" stroke-linecap="round"></path>
            <circle id="Oval" stroke-width="2" cx="16" cy="16" r="15"></circle>
        </g>
    </g>
</svg>