<?xml version="1.0" encoding="UTF-8"?>
<svg width="80px" height="80px" viewBox="0 0 80 80" version="1.1" xmlns="http://www.w3.org/2000/svg" xmlns:xlink="http://www.w3.org/1999/xlink">
    <title>github</title>
    <g id="Logo" stroke="none" stroke-width="1" fill="none" fill-rule="evenodd">
        <g id="Github" fill-rule="nonzero">
            <path d="M80,64 L80,16 C80,7.163444 72.836556,-3.55271368e-15 64,0 L16,0 C7.163444,1.77635684e-15 0,7.163444 0,16 L0,64 C1.77635684e-15,72.836556 7.163444,80 16,80 L64,80 C72.836556,80 80,72.836556 80,64 Z" id="Oval" fill="#FFFFFF"></path>
            <path d="M35.7939135,53.1252386 C27.9306323,52.1735099 22.390625,46.522589 22.390625,39.2062063 C22.390625,36.2320541 23.4628906,33.0199697 25.25,30.8785802 C24.4755542,28.915608 24.5946948,24.7517949 25.4882813,23.0268184 C27.8710938,22.7293714 31.0878906,23.9785471 32.9941406,25.7035236 C35.2578125,24.9897271 37.640625,24.6328288 40.5595385,24.6328288 C43.4785156,24.6328288 45.8613281,24.9897271 48.0058594,25.6440723 C49.8525073,23.9785471 53.1289062,22.7293714 55.5117188,23.0268184 C56.3457031,24.6328288 56.4648438,28.7966419 55.6903979,30.8190654 C57.5966479,33.0794211 58.609375,36.113088 58.609375,39.2062063 C58.609375,46.522589 53.0693042,52.0545438 45.0868823,53.0657238 C47.1122729,54.3743508 48.4824219,57.2295369 48.4824219,60.501136 L48.4824219,66.6874995 C48.4824219,68.4716736 49.9716479,69.483044 51.7587573,68.7692474 C62.5410156,64.6647588 71,53.8984864 71,40.5742846 C71,23.7406149 57.2988281,10 40.4403979,10 C23.5820312,10 10,23.7405514 10,40.5742846 C10,53.7795204 18.3993823,64.7244004 29.7177417,68.8288891 C31.3261719,69.4234023 32.875,68.3530247 32.875,66.7471412 L32.875,61.9881804 C32.0410156,62.3450787 30.96875,62.5830109 30.015625,62.5830109 C26.0839844,62.5830109 23.7607104,60.4416213 22.0927417,56.4562891 C21.4375,54.8502151 20.7226562,53.8984864 19.3525073,53.720069 C18.6376635,53.6605543 18.3993823,53.3631708 18.3993823,53.0062725 C18.3993823,52.292476 19.5907885,51.7570969 20.7821948,51.7570969 C22.5097656,51.7570969 23.9989917,52.8277917 25.5478198,55.028696 C26.739226,56.7536726 27.9902344,57.5269838 29.4794604,57.5269838 C30.96875,57.5269838 31.921875,56.9916047 33.2919604,55.6235264 C34.3046875,54.612283 35.0790698,53.720069 35.7939135,53.1252386 Z" id="Path" fill="#000000"></path>
        </g>
    </g>
</svg>