<?xml version="1.0" encoding="UTF-8"?>
<svg width="80px" height="80px" viewBox="0 0 80 80" version="1.1" xmlns="http://www.w3.org/2000/svg" xmlns:xlink="http://www.w3.org/1999/xlink">
    <title>googlefonts</title>
    <g id="Logo" stroke="none" stroke-width="1" fill="none" fill-rule="evenodd">
        <g id="GoogleFonts" fill-rule="nonzero">
            <path d="M80,64 L80,16 C80,7.163444 72.836556,-3.55271368e-15 64,0 L16,0 C7.163444,1.77635684e-15 0,7.163444 0,16 L0,64 C1.77635684e-15,72.836556 7.163444,80 16,80 L64,80 C72.836556,80 80,72.836556 80,64 Z" id="Oval" fill="#FFFFFF"></path>
            <g id="Group" transform="translate(14.000000, 20.000000)">
                <path d="M0,40 C0,40 25.2978723,0 25.2978723,0 C25.2978723,0 41,0 41,0 C41,0 41,5.56521704 41,5.56521704 C41,5.56521704 19.1914894,40 19.1914894,40" id="path58" fill="#FBBC04"></path>
                <path d="M41,40 C41,40 25,40 25,40 C25,40 25,0 25,0 C25,0 41,0 41,0 C41,0 41,40 41,40 Z" id="path64" fill="#1A73E8"></path>
                <path d="M53,28.5 C53,34.8515385 47.6276923,40 41,40 C41,40 41,17 41,17 C47.6276923,17 53,22.1484615 53,28.5 Z" id="path70" fill="#34A853"></path>
                <path d="M41,40 C34.3723077,40 29,34.8515385 29,28.5 C29,22.1484615 34.3723077,17 41,17 C41,17 41,40 41,40 Z" id="path76" fill="#0D652D"></path>
                <path d="M49,8.5 C49,13.1937 45.4192,17 41,17 C41,17 41,0 41,0 C45.4192,0 49,3.80630017 49,8.5 Z" id="path82" fill="#1A73E8"></path>
                <path d="M41,17 C36.5808,17 33,13.1937 33,8.5 C33,3.80630017 36.5808,0 41,0 C41,0 41,17 41,17 Z" id="path88" fill="#174EA6"></path>
                <path d="M1,8 C1,3.5822224 4.5822224,0 9,0 C13.4177776,0 17,3.5822224 17,8 C17,12.4177778 13.4177776,16 9,16 C4.5822224,16 1,12.4177778 1,8 Z" id="path94" fill="#EA4335"></path>
            </g>
        </g>
    </g>
</svg>