<?xml version="1.0" encoding="UTF-8"?>
<svg width="32px" height="32px" viewBox="0 0 32 32" version="1.1" xmlns="http://www.w3.org/2000/svg" xmlns:xlink="http://www.w3.org/1999/xlink">
    <title>large</title>
    <g id="Icons" stroke="none" stroke-width="1" fill="none" fill-rule="evenodd">
        <g id="Begin" transform="translate(32.000000, 0.000000)" stroke="#FFFFFF" stroke-width="2">
            <g id="Group">
                <circle id="Oval" cx="16" cy="16" r="15"></circle>
            </g>
        </g>
        <g id="Group" transform="translate(-0.000000, 0.000000)">
            <path d="M12.5663717,10 L13.9646018,10 C14.3421829,10 14.5309735,10.1828571 14.5309735,10.5485714 L14.5309735,19.6857143 C14.5309735,19.8685714 14.6253687,19.96 14.8141593,19.96 L19.4336283,19.96 C19.8112094,19.96 20,20.1428571 20,20.5085714 L20,21.4514286 C20,21.8171429 19.8112094,22 19.4336283,22 L12.5663717,22 C12.1887906,22 12,21.8171429 12,21.4514286 L12,10.5485714 C12,10.1828571 12.1887906,10 12.5663717,10 Z" id="Path" fill="#FFFFFF" fill-rule="nonzero"></path>
            <circle id="Oval" stroke="#FFFFFF" stroke-width="2" cx="16" cy="16" r="15"></circle>
        </g>
    </g>
</svg>