<?xml version="1.0" encoding="UTF-8"?>
<svg width="32px" height="32px" viewBox="0 0 32 32" version="1.1" xmlns="http://www.w3.org/2000/svg" xmlns:xlink="http://www.w3.org/1999/xlink">
    <title>medium</title>
    <g id="Icons" stroke="none" stroke-width="1" fill="none" fill-rule="evenodd">
        <g id="Large" transform="translate(32.000000, 0.000000)" stroke="#FFFFFF" stroke-width="2">
            <g id="Group">
                <circle id="Oval" cx="16" cy="16" r="15"></circle>
            </g>
        </g>
        <g id="Group" transform="translate(-0.000000, 0.000000)">
            <path d="M10.5680473,10 L12.2011834,10 C12.4378698,10 12.6094675,10.1028571 12.7159763,10.3085714 L15.8224852,16.3428571 C15.9171598,16.5028571 16,16.5828571 16.0710059,16.5828571 C16.1656805,16.5828571 16.2485207,16.5028571 16.3195266,16.3428571 L19.4260355,10.3085714 C19.5325444,10.1028571 19.704142,10 19.9408284,10 L21.4319527,10 C21.8106509,10 22,10.1828571 22,10.5485714 L22,21.4514286 C22,21.8171429 21.8106509,22 21.4319527,22 L20.1538462,22 C19.7751479,22 19.5857988,21.8171429 19.5857988,21.4514286 L19.5857988,15.3142857 C19.5857988,14.8914286 19.5384615,14.68 19.443787,14.68 C19.3491124,14.68 19.2189349,14.8514286 19.0532544,15.1942857 L17.0650888,19.1371429 C16.9585799,19.3428571 16.7869822,19.4457143 16.5502959,19.4457143 L15.4497041,19.4457143 C15.2130178,19.4457143 15.0414201,19.3428571 14.9349112,19.1371429 L12.9467456,15.1942857 C12.7928994,14.8514286 12.6627219,14.68 12.556213,14.68 C12.4615385,14.68 12.4142012,14.8914286 12.4142012,15.3142857 L12.4142012,21.4514286 C12.4142012,21.8171429 12.2248521,22 11.8461538,22 L10.5680473,22 C10.1893491,22 10,21.8171429 10,21.4514286 L10,10.5485714 C10,10.1828571 10.1893491,10 10.5680473,10 Z" id="Path" fill="#FFFFFF" fill-rule="nonzero"></path>
            <circle id="Oval" stroke="#FFFFFF" stroke-width="2" cx="16" cy="16" r="15"></circle>
        </g>
    </g>
</svg>