<?xml version="1.0" encoding="UTF-8"?>
<svg width="32px" height="32px" viewBox="0 0 32 32" version="1.1" xmlns="http://www.w3.org/2000/svg" xmlns:xlink="http://www.w3.org/1999/xlink">
    <title>middle</title>
    <g id="Icon" stroke="none" stroke-width="1" fill="none" fill-rule="evenodd">
        <g id="Old" transform="translate(31.563370, 0.000000)">
            <g id="Group" transform="translate(14.801914, 15.190665) rotate(14.000000) translate(-14.801914, -15.190665) translate(2.543607, 3.171367)"></g>
        </g>
        <g id="MIddle" fill="#FFFFFF" fill-rule="nonzero">
            <g id="Group" transform="translate(8.000000, 8.000000)">
                <path d="M12.3131882,12.2806235 C13.0065628,13.2833292 13.3333333,13.8156872 13.3333333,14.3709889 C13.3333333,15.4676401 12.4465295,15.999378 11.2518591,15.999378 C10.7252455,15.999378 10.3853096,15.9987579 9.52618672,15.5882501 C9.52618672,15.5882501 8.96952909,15.1203828 7.66683545,15.1684407 C6.3519892,15.1206928 5.79499399,15.594141 5.79499399,15.594141 C4.93587109,16.0043388 4.60808785,15.9999991 4.08214935,15.9999991 C2.88747903,15.9999991 2,15.4688803 2,14.371609 C2,13.8163073 2.32778324,13.2845694 3.0208203,12.2812436 C3.0208203,12.2812436 4.33094054,10.2829634 5.46619804,9.34288808 C6.28650006,8.66449598 7.48252068,8.66697639 7.48252068,8.66697639 L7.8514878,8.66697639 L7.8514878,8.66666615 C7.8514878,8.66666615 9.09983221,8.66387588 9.86882316,9.34288808 C10.9689731,10.3170691 12.3131882,12.2809336 12.3131882,12.2806235 Z M5.33333333,6.66666627 C6.43797582,6.66666627 7.33333333,5.17418624 7.33333333,3.33333314 C7.33333333,1.49248003 6.43797582,0 5.33333333,0 C4.22869085,0 3.33333333,1.49248003 3.33333333,3.33333314 C3.33333333,5.17418624 4.22869085,6.66666627 5.33333333,6.66666627 Z M3.16730833,9.23682079 C4.06405325,8.87073803 4.26859133,7.57272892 3.62373736,6.33752671 C2.97888338,5.1023245 1.72929384,4.3974916 0.832548923,4.76328359 C-0.064195995,5.12907558 -0.268405234,6.42737546 0.3761199,7.66257767 C1.02097387,8.89777988 2.27056342,9.60232201 3.16730833,9.23682079 Z M10.6665174,6.66666627 C11.7710774,6.66666627 12.6666667,5.17418624 12.6666667,3.33333314 C12.6666667,1.49248003 11.7710774,0 10.6665174,0 C9.56195736,0 8.66666667,1.49248003 8.66666667,3.33333314 C8.66666667,5.17418624 9.56195736,6.66666627 10.6665174,6.66666627 Z M15.1670894,4.76340089 C14.2701124,4.39735924 13.0209864,5.10211299 12.376202,6.33746722 C11.7314175,7.57282145 11.9359336,8.87068478 12.8329106,9.23672643 C13.7298876,9.60247735 14.9790136,8.8977236 15.623798,7.66266011 C16.2685825,6.42759662 16.0640664,5.12944254 15.1670894,4.76340089 Z" id="Shape"></path>
            </g>
        </g>
    </g>
</svg>