<?xml version="1.0" encoding="UTF-8"?>
<svg width="32px" height="32px" viewBox="0 0 32 32" version="1.1" xmlns="http://www.w3.org/2000/svg" xmlns:xlink="http://www.w3.org/1999/xlink">
    <title>middle</title>
    <g id="Icons" stroke="none" stroke-width="1" fill="none" fill-rule="evenodd">
        <g id="Old" transform="translate(32.000000, 0.000000)" stroke="#FFFFFF" stroke-width="2">
            <g id="Group">
                <circle id="Oval" cx="16" cy="16" r="15"></circle>
            </g>
        </g>
        <g id="Group" transform="translate(-0.000000, 0.000000)">
            <path d="M20.3131882,20.2806235 C21.0065628,21.2833292 21.3333333,21.8156872 21.3333333,22.3709889 C21.3333333,23.4676401 20.4465295,23.999378 19.2518591,23.999378 C18.7252455,23.999378 18.3853096,23.9987579 17.5261867,23.5882501 C17.5261867,23.5882501 16.9695291,23.1203828 15.6668355,23.1684407 C14.3519892,23.1206928 13.794994,23.594141 13.794994,23.594141 C12.9358711,24.0043388 12.6080878,23.9999991 12.0821493,23.9999991 C10.887479,23.9999991 10,23.4688803 10,22.371609 C10,21.8163073 10.3277832,21.2845694 11.0208203,20.2812436 C11.0208203,20.2812436 12.3309405,18.2829634 13.466198,17.3428881 C14.2865001,16.664496 15.4825207,16.6669764 15.4825207,16.6669764 L15.8514878,16.6669764 L15.8514878,16.6666662 C15.8514878,16.6666662 17.0998322,16.6638759 17.8688232,17.3428881 C18.9689731,18.3170691 20.3131882,20.2809336 20.3131882,20.2806235 Z M13.3333333,14.6666663 C14.4379758,14.6666663 15.3333333,13.1741862 15.3333333,11.3333331 C15.3333333,9.49248003 14.4379758,8 13.3333333,8 C12.2286908,8 11.3333333,9.49248003 11.3333333,11.3333331 C11.3333333,13.1741862 12.2286908,14.6666663 13.3333333,14.6666663 Z M11.1673083,17.2368208 C12.0640533,16.870738 12.2685913,15.5727289 11.6237374,14.3375267 C10.9788834,13.1023245 9.72929384,12.3974916 8.83254892,12.7632836 C7.93580401,13.1290756 7.73159477,14.4273755 8.3761199,15.6625777 C9.02097387,16.8977799 10.2705634,17.602322 11.1673083,17.2368208 Z M18.6665174,14.6666663 C19.7710774,14.6666663 20.6666667,13.1741862 20.6666667,11.3333331 C20.6666667,9.49248003 19.7710774,8 18.6665174,8 C17.5619574,8 16.6666667,9.49248003 16.6666667,11.3333331 C16.6666667,13.1741862 17.5619574,14.6666663 18.6665174,14.6666663 Z M23.1670894,12.7634009 C22.2701124,12.3973592 21.0209864,13.102113 20.376202,14.3374672 C19.7314175,15.5728215 19.9359336,16.8706848 20.8329106,17.2367264 C21.7298876,17.6024773 22.9790136,16.8977236 23.623798,15.6626601 C24.2685825,14.4275966 24.0640664,13.1294425 23.1670894,12.7634009 Z" id="Shape" fill="#FFFFFF" fill-rule="nonzero"></path>
            <circle id="Oval" stroke="#FFFFFF" stroke-width="2" cx="16" cy="16" r="15"></circle>
        </g>
    </g>
</svg>