<?xml version="1.0" encoding="UTF-8"?>
<svg width="32px" height="32px" viewBox="0 0 32 32" version="1.1" xmlns="http://www.w3.org/2000/svg" xmlns:xlink="http://www.w3.org/1999/xlink">
    <title>old</title>
    <g id="Icon" stroke="none" stroke-width="1" fill="none" fill-rule="evenodd">
        <g id="Old" transform="translate(-0.436630, 0.000000)" fill="#FFFFFF" fill-rule="nonzero">
            <g id="Group" transform="translate(14.801914, 15.190665) rotate(14.000000) translate(-14.801914, -15.190665) translate(2.543607, 3.171367)">
                <path d="M13.6973822,21.3566589 C12.8781752,20.8462292 12.4830867,20.5659598 12.3993509,20.1972045 C12.2340468,19.4689446 13.0082919,18.9170313 14.1593185,18.6492135 C14.6666939,18.5311588 20.5602862,17.15942 21.0670017,17.0414757 C22.2180377,16.7736988 23.153164,16.9274466 23.3186138,17.6561063 C23.4022974,18.0248736 23.1666508,18.4514672 22.650188,19.2731106 C22.650188,19.2731106 21.6891795,20.8938109 20.7371161,21.7725872 C20.0490522,22.4069812 18.8963507,22.6734545 18.8963507,22.6734545 L18.5408699,22.7561998 C18.5409094,22.7563744 17.3385902,23.0380777 16.4953276,22.7595551 C15.2885058,22.3592576 13.6973355,21.356453 13.6973822,21.3566589 Z" id="Shape" transform="translate(17.856144, 19.900473) rotate(-13.000000) translate(-17.856144, -19.900473) "></path>
                <path d="M21.9819296,8.44292867 C22.4586247,9.13228883 22.6832794,9.49828493 22.6832794,9.88005489 C22.6832794,10.6340026 22.0736018,10.9995724 21.2522659,10.9995724 C20.890219,10.9995724 20.6565131,10.9991461 20.0658661,10.7169219 C20.0658661,10.7169219 19.683164,10.3952631 18.7875621,10.428303 C17.8836053,10.3954763 17.5006711,10.720972 17.5006711,10.720972 C16.9100241,11.0029829 16.6846732,10.9999993 16.3230904,10.9999993 C15.5017546,10.9999993 14.8916128,10.6348552 14.8916128,9.88048121 C14.8916128,9.49871125 15.1169637,9.13314147 15.5934267,8.44335499 C15.5934267,8.44335499 16.4941344,7.06953735 17.2746239,6.42323555 C17.8385816,5.95684099 18.6608457,5.95854627 18.6608457,5.95854627 L18.9145106,5.95854627 L18.9145106,5.95833298 C18.9145106,5.95833298 19.7727474,5.95641467 20.3014287,6.42323555 C21.0577818,7.09298497 21.9819296,8.44314183 21.9819296,8.44292867 Z M17.1832794,4.58333306 C17.9427211,4.58333306 18.5582794,3.55725304 18.5582794,2.29166653 C18.5582794,1.02608002 17.9427211,-5.68434189e-14 17.1832794,-5.68434189e-14 C16.4238377,-5.68434189e-14 15.8082794,1.02608002 15.8082794,2.29166653 C15.8082794,3.55725304 16.4238377,4.58333306 17.1832794,4.58333306 Z M15.6941372,6.35031429 C16.3106494,6.09863239 16.4512693,5.20625113 16.0079322,4.35704961 C15.5645951,3.50784809 14.7055023,3.02327547 14.0889901,3.27475747 C13.472478,3.52623946 13.3320842,4.41882063 13.7751952,5.26802215 C14.2185323,6.11722367 15.0776251,6.60159638 15.6941372,6.35031429 Z M20.8498435,4.58333306 C21.6092285,4.58333306 22.2249461,3.55725304 22.2249461,2.29166653 C22.2249461,1.02608002 21.6092285,-5.68434189e-14 20.8498435,-5.68434189e-14 C20.0904584,-5.68434189e-14 19.4749461,1.02608002 19.4749461,2.29166653 C19.4749461,3.55725304 20.0904584,4.58333306 20.8498435,4.58333306 Z M23.9439867,3.27483811 C23.327315,3.02318448 22.4685409,3.50770268 22.0252516,4.35700871 C21.5819623,5.20631475 21.7225671,6.09859579 22.3392388,6.35024942 C22.9559105,6.60170318 23.8146846,6.11718498 24.2579739,5.26807882 C24.7012632,4.41897267 24.5606584,3.52649175 23.9439867,3.27483811 Z" id="Shape"></path>
                <path d="M10.6253235,14.5386049 C11.1020186,15.2279651 11.3266733,15.5939612 11.3266733,15.9757311 C11.3266733,16.7296788 10.7169956,17.0952486 9.8956598,17.0952486 C9.53361291,17.0952486 9.29990701,17.0948223 8.70926001,16.8125982 C8.70926001,16.8125982 8.32655789,16.4909394 7.43095602,16.5239792 C6.52699922,16.4911525 6.14406501,16.8166482 6.14406501,16.8166482 C5.55341802,17.0986592 5.32806704,17.0956756 4.96648432,17.0956756 C4.14514847,17.0956756 3.53500664,16.7305315 3.53500664,15.9761574 C3.53500664,15.5943875 3.76035762,15.2288177 4.2368206,14.5390312 C4.2368206,14.5390312 5.13752826,13.1652136 5.91801779,12.5189118 C6.48197544,12.0525172 7.30423961,12.0542225 7.30423961,12.0542225 L7.55790451,12.0542225 L7.55790451,12.0540092 C7.55790451,12.0540092 8.41614129,12.0520909 8.94482257,12.5189118 C9.70117564,13.1886612 10.6253235,14.5388181 10.6253235,14.5386049 Z M5.82667331,10.6790093 C6.58611502,10.6790093 7.20167331,9.65292927 7.20167331,8.38734277 C7.20167331,7.12175626 6.58611502,6.09567624 5.82667331,6.09567624 C5.0672316,6.09567624 4.45167331,7.12175626 4.45167331,8.38734277 C4.45167331,9.65292927 5.0672316,10.6790093 5.82667331,10.6790093 Z M4.33753112,12.4459905 C4.95404325,12.1943086 5.09466318,11.3019274 4.65132608,10.4527258 C4.20798897,9.60352433 3.34889616,9.11895171 2.73238403,9.3704337 C2.1158719,9.6219157 1.97547805,10.5144969 2.41858907,11.3636984 C2.86192618,12.2128999 3.72101899,12.6972726 4.33753112,12.4459905 Z M9.49323736,10.6790093 C10.2526224,10.6790093 10.86834,9.65292927 10.86834,8.38734277 C10.86834,7.12175626 10.2526224,6.09567624 9.49323736,6.09567624 C8.73385233,6.09567624 8.11833998,7.12175626 8.11833998,8.38734277 C8.11833998,9.65292927 8.73385233,10.6790093 9.49323736,10.6790093 Z M12.5873806,9.37051435 C11.9707089,9.11886071 11.1119348,9.60337891 10.6686455,10.4526849 C10.2253562,11.301991 10.365961,12.194272 10.9826327,12.4459257 C11.5993044,12.6973794 12.4580785,12.2128612 12.9013678,11.3637551 C13.3446571,10.5146489 13.2040523,9.62216798 12.5873806,9.37051435 Z" id="Shape" transform="translate(7.660007, 11.595676) rotate(-35.000000) translate(-7.660007, -11.595676) "></path>
            </g>
        </g>
    </g>
</svg>