<?xml version="1.0" encoding="UTF-8"?>
<svg width="32px" height="32px" viewBox="0 0 32 32" version="1.1" xmlns="http://www.w3.org/2000/svg" xmlns:xlink="http://www.w3.org/1999/xlink">
    <title>old</title>
    <g id="Icons" stroke="none" stroke-width="1" fill="none" fill-rule="evenodd">
        <g id="Small" transform="translate(32.000000, 0.000000)" stroke="#FFFFFF" stroke-width="2">
            <g id="Group">
                <circle id="Oval" cx="16" cy="16" r="15"></circle>
            </g>
        </g>
        <g id="Group" transform="translate(-0.000000, 0.000000)">
            <path d="M14.8043591,26.5280256 C13.9851521,26.0175959 13.5900636,25.7373265 13.5063278,25.3685712 C13.3410237,24.6403113 14.1152688,24.088398 15.2662954,23.8205802 C15.7736709,23.7025255 21.6672631,22.3307867 22.1739786,22.2128425 C23.3250147,21.9450655 24.2601409,22.0988133 24.4255907,22.827473 C24.5092743,23.1962403 24.2736277,23.6228339 23.7571649,24.4444773 C23.7571649,24.4444773 22.7961564,26.0651776 21.844093,26.9439539 C21.1560291,27.5783479 20.0033276,27.8448212 20.0033276,27.8448212 L19.6478468,27.9275665 C19.6478863,27.9277411 18.4455671,28.2094444 17.6023045,27.9309219 C16.3954827,27.5306243 14.8043124,26.5278197 14.8043591,26.5280256 Z" id="Shape" fill="#FFFFFF" fill-rule="nonzero" transform="translate(18.963121, 25.071839) rotate(-13.000000) translate(-18.963121, -25.071839) "></path>
            <path d="M23.0889066,13.6142954 C23.5656016,14.3036555 23.7902564,14.6696516 23.7902564,15.0514216 C23.7902564,15.8053693 23.1805787,16.1709391 22.3592428,16.1709391 C21.997196,16.1709391 21.7634901,16.1705128 21.1728431,15.8882886 C21.1728431,15.8882886 20.7901409,15.5666298 19.8945391,15.5996697 C18.9905823,15.566843 18.6076481,15.8923387 18.6076481,15.8923387 C18.0170011,16.1743496 17.7916501,16.1713661 17.4300674,16.1713661 C16.6087315,16.1713661 15.9985897,15.8062219 15.9985897,15.0518479 C15.9985897,14.670078 16.2239407,14.3045082 16.7004036,13.6147217 C16.7004036,13.6147217 17.6011113,12.2409041 18.3816008,11.5946023 C18.9455585,11.1282077 19.7678227,11.129913 19.7678227,11.129913 L20.0214876,11.129913 L20.0214876,11.1296997 C20.0214876,11.1296997 20.8797243,11.1277814 21.4084056,11.5946023 C22.1647587,12.2643517 23.0889066,13.6145085 23.0889066,13.6142954 Z M18.2902564,9.75469976 C19.0496981,9.75469976 19.6652564,8.72861974 19.6652564,7.46303323 C19.6652564,6.19744673 19.0496981,5.1713667 18.2902564,5.1713667 C17.5308146,5.1713667 16.9152564,6.19744673 16.9152564,7.46303323 C16.9152564,8.72861974 17.5308146,9.75469976 18.2902564,9.75469976 Z M16.8011142,11.521681 C17.4176263,11.2699991 17.5582462,10.3776178 17.1149091,9.52841631 C16.671572,8.67921479 15.8124792,8.19464217 15.1959671,8.44612417 C14.5794549,8.69760616 14.4390611,9.59018733 14.8821721,10.4393889 C15.3255092,11.2885904 16.184602,11.7729631 16.8011142,11.521681 Z M21.9568204,9.75469976 C22.7162054,9.75469976 23.331923,8.72861974 23.331923,7.46303323 C23.331923,6.19744673 22.7162054,5.1713667 21.9568204,5.1713667 C21.1974354,5.1713667 20.581923,6.19744673 20.581923,7.46303323 C20.581923,8.72861974 21.1974354,9.75469976 21.9568204,9.75469976 Z M25.0509637,8.44620482 C24.434292,8.19455118 23.5755178,8.67906938 23.1322285,9.52837541 C22.6889392,10.3776814 22.829544,11.2699625 23.4462157,11.5216161 C24.0628874,11.7730699 24.9216615,11.2885517 25.3649508,10.4394455 C25.8082401,9.59033938 25.6676354,8.69785845 25.0509637,8.44620482 Z" id="Shape" fill="#FFFFFF" fill-rule="nonzero"></path>
            <path d="M11.7323004,19.7099716 C12.2089955,20.3993318 12.4336502,20.7653279 12.4336502,21.1470978 C12.4336502,21.9010455 11.8239726,22.2666153 11.0026367,22.2666153 C10.6405898,22.2666153 10.4068839,22.266189 9.81623694,21.9839649 C9.81623694,21.9839649 9.43353482,21.6623061 8.53793295,21.6953459 C7.63397615,21.6625192 7.25104194,21.9880149 7.25104194,21.9880149 C6.66039494,22.2700259 6.43504397,22.2670423 6.07346125,22.2670423 C5.2521254,22.2670423 4.64198357,21.9018982 4.64198357,21.1475241 C4.64198357,20.7657542 4.86733455,20.4001844 5.34379753,19.7103979 C5.34379753,19.7103979 6.24450519,18.3365803 7.02499472,17.6902785 C7.58895237,17.2238839 8.41121654,17.2255892 8.41121654,17.2255892 L8.66488144,17.2255892 L8.66488144,17.2253759 C8.66488144,17.2253759 9.52311821,17.2234576 10.0517995,17.6902785 C10.8081526,18.3600279 11.7323004,19.7101848 11.7323004,19.7099716 Z M6.93365024,15.850376 C7.69309195,15.850376 8.30865024,14.824296 8.30865024,13.5587095 C8.30865024,12.293123 7.69309195,11.2670429 6.93365024,11.2670429 C6.17420853,11.2670429 5.55865024,12.293123 5.55865024,13.5587095 C5.55865024,14.824296 6.17420853,15.850376 6.93365024,15.850376 Z M5.44450805,17.6173572 C6.06102018,17.3656753 6.20164011,16.4732941 5.75830301,15.6240925 C5.3149659,14.774891 4.45587309,14.2903184 3.83936096,14.5418004 C3.22284883,14.7932824 3.08245497,15.6858636 3.525566,16.5350651 C3.96890311,17.3842666 4.82799592,17.8686393 5.44450805,17.6173572 Z M10.6002143,15.850376 C11.3595993,15.850376 11.9753169,14.824296 11.9753169,13.5587095 C11.9753169,12.293123 11.3595993,11.2670429 10.6002143,11.2670429 C9.84082926,11.2670429 9.22531691,12.293123 9.22531691,13.5587095 C9.22531691,14.824296 9.84082926,15.850376 10.6002143,15.850376 Z M13.6943576,14.5418811 C13.0776858,14.2902274 12.2189117,14.7747456 11.7756224,15.6240516 C11.3323331,16.4733577 11.4729379,17.3656387 12.0896096,17.6172924 C12.7062813,17.8687461 13.5650554,17.3842279 14.0083447,16.5351218 C14.451634,15.6860156 14.3110293,14.7935347 13.6943576,14.5418811 Z" id="Shape" fill="#FFFFFF" fill-rule="nonzero" transform="translate(8.766984, 16.767043) rotate(-35.000000) translate(-8.766984, -16.767043) "></path>
            <circle id="Oval" stroke="#FFFFFF" stroke-width="2" cx="16" cy="16" r="15"></circle>
        </g>
    </g>
</svg>