<?xml version="1.0" encoding="UTF-8"?>
<svg width="128px" height="256px" viewBox="0 0 128 256" version="1.1" xmlns="http://www.w3.org/2000/svg" xmlns:xlink="http://www.w3.org/1999/xlink">
    <title>paws</title>
    <g id="Backgrounds" stroke="none" stroke-width="1" fill="none" fill-rule="evenodd">
        <g id="Paws" fill="#FFFFFF" fill-rule="nonzero">
            <g id="Group" transform="translate(63.750000, 128.250000) scale(-1, 1) rotate(90.000000) translate(-63.750000, -128.250000) translate(-56.000000, 90.500000)">
                <g id="Paw10" transform="translate(0.000000, 28.500000)">
                    <path d="M6.94185994,21.5564465 C5.50430173,21.0120918 4.92374938,20.1411243 5.31078428,19.0796326 C5.61488313,18.2631005 6.85892389,17.4193507 7.77122045,17.4193507 C9.2917147,17.4193507 10.812209,18.834673 10.812209,20.3044307 C10.812209,21.9647125 9.3470054,22.4546318 6.94185994,21.5564465 Z" id="Path"></path>
                    <path d="M12.8303195,16.9838669 C11.8627323,16.5211654 11.2268892,15.2963673 11.5033427,14.4526175 C11.8903776,13.2278194 14.2955231,12.2207632 15.9265987,12.6290293 C17.8894186,13.1189485 18.6634884,15.4868915 17.2812209,16.7389073 C16.7006685,17.283262 16.2583429,17.4193507 15.1248836,17.4193507 C14.3508138,17.4193507 13.3279358,17.2288266 12.8303195,16.9838669 Z" id="Path"></path>
                    <path d="M0.749301509,16.5483832 C0.141103806,16.0312462 -0.024768295,15.6774156 0.0028770551,14.8336658 C0.0305224052,14.2348757 0.0581677554,11.8669327 0.113458456,9.58064289 C0.168749156,5.66128898 0.196394506,5.38911163 0.804592209,4.76310371 C1.60630736,3.94657165 2.73976672,3.70161203 4.12203423,4.08266032 C5.47665638,4.43649088 5.83604594,4.70866824 8.3517728,7.48487726 C11.5862788,11.0504006 11.7521509,12.3568519 9.1811333,13.7993919 C8.48999955,14.1804402 6.99715064,15.0514077 5.89133664,15.7318511 C3.34796442,17.2560443 1.85511551,17.5010039 0.749301509,16.5483832 Z" id="Path"></path>
                    <path d="M13.2173544,9.22681233 C10.8398543,7.9747965 11.0886625,5.55241804 13.6320347,4.89919239 C15.7330813,4.32761994 18,5.55241804 18,7.23991764 C18,9.36290101 15.4289824,10.4243927 13.2173544,9.22681233 Z" id="Path"></path>
                    <path d="M7.88180185,4.08266032 C7.08008669,3.78326523 6.11249944,2.50403166 6.11249944,1.79637054 C6.11249944,1.46975772 6.30601689,0.925403006 6.55482504,0.598790181 C6.91421459,0.108870942 7.24595879,0 8.54529025,0 C10.6186915,0 11.918023,0.734878858 11.918023,1.90524148 C11.918023,3.56552335 9.65110426,4.79032145 7.88180185,4.08266032 Z" id="Path"></path>
                </g>
                <g id="Paw09" transform="translate(24.000000, 53.500000)">
                    <path d="M6.83476008,21.4150479 C5.77253781,20.3543024 6.80752361,18.1512156 8.52342112,17.7704351 C11.192595,17.1720659 13.2898031,20.1367136 11.1653586,21.4422465 C9.91248101,22.2038074 7.59738119,22.1766088 6.83476008,21.4150479 Z" id="Path"></path>
                    <path d="M1.19681112,17.4984491 C0.216298256,16.682491 0.0256429768,15.8665329 0.325244129,13.7722405 C0.48866294,12.7658922 0.434190003,11.3787635 0.216298256,9.82844308 C-0.355667581,6.10223448 0.13458885,5.12308477 2.55863454,5.12308477 C3.457438,5.12308477 4.16558618,5.3678722 5.39122725,6.10223448 C6.26279424,6.64620654 7.70632707,7.43496602 8.55065759,7.87014367 C11.4104868,9.31166963 11.6283785,10.7531956 9.3132787,13.3914601 C8.57789406,14.2346168 7.65185413,15.3497595 7.24330711,15.8665329 C5.55464606,18.0696198 2.77652629,18.8311807 1.19681112,17.4984491 Z" id="Path"></path>
                    <path d="M12.2820538,16.3017106 C10.9474668,14.968979 11.4104868,13.6362475 13.5076948,12.6027006 C14.7060995,12.0315299 15.0329371,11.9771327 15.9045041,12.1947215 C17.8110568,12.7386936 18.6281509,14.7241916 17.4569828,15.9753274 C16.6943616,16.7640868 15.8227947,17.0904701 14.3247889,17.0904701 C13.3170396,17.0904701 12.935729,16.9272785 12.2820538,16.3017106 Z" id="Path"></path>
                    <path d="M12.6633643,8.76769757 C12.2003444,8.52291014 11.655615,7.97893808 11.4649597,7.51656183 C11.0291762,6.42861772 11.5194326,5.44946801 12.8540196,4.79670154 C16.0951593,3.16478536 19.3362991,6.02063867 16.9667263,8.41411573 C16.2858146,9.0668822 15.9317405,9.20287522 14.8422818,9.20287522 C14.1341336,9.20287522 13.1536208,9.012485 12.6633643,8.76769757 Z" id="Path"></path>
                    <path d="M6.1266119,4.03514066 C4.43795086,3.02879235 4.71031554,1.36967757 6.67134127,0.472123669 C9.72182573,-0.887806479 11.7373244,0.880102713 9.93971748,3.35517558 C8.95920462,4.63350992 7.54290826,4.90549595 6.1266119,4.03514066 Z" id="Path"></path>
                </g>
                <g id="Paw08" transform="translate(43.500000, 29.000000)">
                    <path d="M10.4717502,20.6299282 C9.51226979,19.9533664 9.62192469,18.5190556 10.6636463,17.4636193 C11.4312306,16.7058702 11.6505404,16.6517452 12.8019169,16.7870576 C13.7888111,16.8953075 14.2548444,17.1118072 14.8305327,17.7613065 C15.7625993,18.7896803 15.7900131,19.4121171 14.9401876,20.1969287 C14.0629483,21.0358652 11.3764032,21.2794274 10.4717502,20.6299282 Z" id="Path"></path>
                    <path d="M4.13917947,18.4378682 C3.34418141,17.8966188 3.04263042,17.3012445 2.384701,14.9738722 C2.11056374,13.9184359 1.42522058,12.2946878 0.904359787,11.3745638 C-0.548567697,8.80362928 -0.24701671,7.09869375 1.78159902,6.25975721 C3.28935396,5.63732043 4.30366182,5.82675771 7.48365405,7.26106856 C10.5814051,8.64125447 12.3084698,9.99437791 12.3084698,10.9686268 C12.3084698,11.9158132 8.25123838,17.328307 6.85313835,18.2484309 C5.75658931,18.9791176 4.98900498,19.0332425 4.13917947,18.4378682 Z" id="Path"></path>
                    <path d="M14.391913,13.9725608 C13.4598463,13.2418742 13.4598463,12.1323129 14.391913,11.0227517 C15.8722542,9.29075372 17.7363876,8.93894163 19.1344877,10.1026278 C20.5600014,11.2663139 20.1762092,13.2148117 18.3394896,14.1349356 C17.1606994,14.73031 15.2691523,14.6491225 14.391913,13.9725608 Z" id="Path"></path>
                    <path d="M11.7053679,6.80100659 C10.3072678,6.07031993 10.4443365,4.14888464 11.9520914,3.06638589 C12.8567444,2.41688664 15.1320836,2.17332442 16.0093229,2.63338639 C17.4622504,3.41819799 17.5170778,5.36669574 16.0915641,6.55744437 C15.4610484,7.09869375 14.995015,7.23400609 13.8710522,7.23400609 C13.0760542,7.20694362 12.1165738,7.04456881 11.7053679,6.80100659 Z" id="Path"></path>
                    <path d="M4.66004026,3.82413502 C3.70055985,3.03932342 3.53607749,1.87563726 4.22142065,1.17201307 C4.46814418,0.955513322 5.29055596,0.54957629 6.11296775,0.306014071 C7.37399915,-0.072860493 7.67555014,-0.0999229618 8.36089329,0.224826664 C8.99140899,0.522513821 9.18330507,0.820200978 9.23813252,1.63207504 C9.3203737,2.49807405 9.18330507,2.7957612 8.38830702,3.5805728 C7.18210307,4.77132143 5.89365794,4.85250883 4.66004026,3.82413502 Z" id="Path"></path>
                </g>
                <g id="Paw07" transform="translate(73.000000, 46.500000)">
                    <path d="M10.5396471,21.482243 C10.2335769,21.1771518 9.98315577,20.6224406 9.98315577,20.2341428 C9.98315577,17.6547357 13.182981,16.3234289 15.0194025,18.1262403 C15.7428412,18.8751004 15.7984903,19.0137782 15.4924201,19.8181094 C15.2698236,20.4837628 14.852455,20.8720607 13.7672969,21.3713007 C12.0421738,22.175632 11.2630859,22.2033675 10.5396471,21.482243 Z" id="Path"></path>
                    <path d="M4.52954058,19.6239605 C3.44438245,19.402076 2.74876827,18.3481247 2.33139976,16.1847511 C2.13662779,15.0475931 1.49666274,13.1615751 0.967995962,11.9966816 C-0.284109567,9.33406785 -0.311934134,8.44652995 0.828873125,7.50352092 C1.94185582,6.56051189 3.11048764,6.56051189 7.31199731,7.61446316 C11.123963,8.55747219 11.7917526,9.00124114 11.7361035,10.6099036 C11.7082789,11.8857393 8.95364678,17.765678 8.00761149,18.5977448 C7.39547101,19.1247204 5.6981724,19.8735805 5.28080389,19.7903738 C5.19733019,19.7626383 4.83561082,19.6794316 4.52954058,19.6239605 Z" id="Path"></path>
                    <path d="M14.1568409,14.8257087 C12.5708405,13.2447818 14.6298585,10.1106635 17.301017,10.1106635 C18.5809471,10.1106635 20,11.3310281 20,12.412715 C20,13.2447818 19.1096138,14.4374108 18.0522803,14.9643865 C16.8558239,15.5745688 14.8246305,15.4913621 14.1568409,14.8257087 Z" id="Path"></path>
                    <path d="M12.8490862,7.66993428 C11.7361035,7.33710756 11.0961385,6.56051189 11.0961385,5.58976731 C11.0961385,4.00884041 13.0160336,2.53885575 15.1028762,2.53885575 C17.6349118,2.53885575 18.3861751,5.81165178 16.1602097,7.11522309 C15.241999,7.66993428 13.6838232,7.91955431 12.8490862,7.66993428 Z" id="Path"></path>
                    <path d="M4.80778625,4.72996496 C3.94522466,4.34166713 3.58350529,3.81469149 3.58350529,2.92715359 C3.58350529,2.31697127 5.41992673,0.514159899 6.44943572,0.153597624 C8.11890976,-0.484320247 9.45448899,0.957928853 8.87017308,2.76074023 C8.2580326,4.59128716 6.44943572,5.47882507 4.80778625,4.72996496 Z" id="Path"></path>
                </g>
                <g id="Paw06" transform="translate(90.000000, 20.500000)">
                    <path d="M11.7390636,19.5215902 C11.0137668,18.7093263 11.1749439,17.3826286 12.0614178,16.4620629 C12.7061261,15.8122517 13.0822059,15.6768744 14.1029941,15.6768744 C15.1237822,15.6768744 15.499862,15.8122517 16.1445703,16.4620629 C17.0579071,17.4097041 17.1116328,17.815836 16.386336,18.7364018 C15.4192735,19.9547976 12.544949,20.4421559 11.7390636,19.5215902 Z" id="Path"></path>
                    <path d="M5.13080355,18.4656471 C4.83531225,18.1948925 4.02942687,16.8681948 3.38471857,15.4873462 C2.71314743,14.133573 2.04157628,12.9422527 1.88039921,12.8339508 C1.12823952,12.3736679 0,10.3971591 0,9.58489525 C0,7.93329201 1.74608498,6.47121701 3.68020988,6.47121701 C4.88903794,6.47121701 10.4227842,8.09574479 11.3898466,8.71848044 C11.7927893,8.98923507 12.1420063,9.53074433 12.2225949,10.0722536 C12.3837719,10.8303666 12.1151435,11.5072531 10.6376869,14.3501767 C9.6706245,16.1913082 8.54238497,17.9782888 8.16630513,18.3302698 C7.33355691,19.0613073 5.93668893,19.1154582 5.13080355,18.4656471 Z" id="Path"></path>
                    <path d="M14.5059367,12.4278189 C12.544949,10.4513101 16.1714332,6.57951886 18.7234035,7.93329201 C20.6038028,8.90800868 20.3620371,11.3448003 18.293598,12.4007434 C16.89673,13.1317809 15.2043707,13.1317809 14.5059367,12.4278189 Z" id="Path"></path>
                    <path d="M10.3690585,5.57772673 C9.50944742,4.71131191 9.48258458,4.11565173 10.28847,2.95140682 C11.0137668,1.8683883 12.4374976,1.0561244 13.5926,1.0561244 C15.7953533,1.0561244 16.6818273,3.65536885 15.0431937,5.25282117 C14.3984854,5.87555682 13.941817,6.06508506 12.6524004,6.14631145 C11.2018067,6.2546133 10.9869039,6.20046238 10.3690585,5.57772673 Z" id="Path"></path>
                    <path d="M3.8682498,4.41348182 C3.41158142,4.19687811 2.8743245,3.68244432 2.71314743,3.30338783 C2.2833419,2.35574663 2.9280502,1.43518089 4.56668379,0.595841534 C6.04414031,-0.189346894 6.82316284,-0.189346894 7.54845968,0.541690608 C8.59611067,1.59763367 7.87081383,3.57414246 6.12472885,4.46763274 C5.21139209,4.95499108 4.91590079,4.92791562 3.8682498,4.41348182 Z" id="Path"></path>
                </g>
                <g id="Paw05" transform="translate(122.500000, 30.000000)">
                    <path d="M13.0595487,20.962993 C12.3463008,20.7388738 11.9622442,19.9824715 11.9622442,18.8058457 C11.9622442,17.1809815 13.0869813,16.0603855 14.815236,16.0323706 C16.735519,15.9763408 17.7230931,17.3770858 16.9001146,18.9459202 C16.4063276,19.8704119 13.8550945,21.243142 13.0595487,20.962993 Z" id="Path"></path>
                    <path d="M5.37841685,19.7023225 C4.91206242,19.4782033 4.41827537,18.6657712 3.81475786,17.2650262 C3.32097082,16.1164153 2.36082933,14.3514766 1.64758137,13.3429402 C0.0016245467,11.0457184 -0.272701591,10.2613012 0.221085457,9.22474989 C0.934333416,7.71194529 2.03163797,7.40378139 6.33855833,7.59988569 C8.45086959,7.68393039 10.4534504,7.90804959 10.7826418,8.07613899 C11.9896768,8.69246679 12.0719746,9.92512238 11.2489962,13.5390445 C10.3711526,17.4891454 9.71276983,18.8058457 8.34113914,19.5342331 C7.16153675,20.1505609 6.33855833,20.2065907 5.37841685,19.7023225 Z" id="Path"></path>
                    <path d="M15.2267252,13.5670594 C14.815236,13.4269849 14.3488816,12.9507316 14.1568533,12.5024932 C13.4436053,10.7375545 15.5559166,8.02010919 17.6407952,8.02010919 C18.8752628,8.02010919 20,9.08467539 20,10.2332863 C20,12.3063889 17.1744408,14.2954468 15.2267252,13.5670594 Z" id="Path"></path>
                    <path d="M11.2215636,6.33921519 C8.61546528,5.274649 10.8100744,0.988369307 13.9373924,1.01638421 C15.0621295,1.04439911 15.7205122,1.52065241 16.1045688,2.6412484 C16.872682,4.9384702 13.7179314,7.34775159 11.2215636,6.33921519 Z" id="Path"></path>
                    <path d="M3.45813388,5.0225149 C2.71745331,4.6303063 2.47055979,4.3221424 2.41569456,3.6217699 C2.33339672,2.8933825 2.55285763,2.473159 3.45813388,1.46462261 C4.74746673,0.0358627098 5.70760822,-0.328330989 6.61288447,0.287996809 C7.4632955,0.848294808 7.71018902,2.1089653 7.21640197,3.2855911 C6.44828879,5.1625894 5.02179287,5.83494699 3.45813388,5.0225149 Z" id="Path"></path>
                </g>
                <g id="Paw04" transform="translate(144.500000, 0.000000)">
                    <path d="M9.39325843,21.814811 C8.64606742,21.5361208 8.05898876,20.8115264 8.05898876,20.1705391 C8.05898876,19.3344686 9.20646067,17.9410179 10.0870787,17.7180658 C12.4087079,17.1049474 14.8370787,20.2820152 13.0758427,21.5639899 C12.488764,22.0098941 10.247191,22.1492392 9.39325843,21.814811 Z" id="Path"></path>
                    <path d="M3.22893258,18.7492193 C2.50842697,18.5541362 1.86797753,17.0213404 1.62780899,14.8475572 C1.46769663,13.7049275 1.06741573,11.9213106 0.693820225,10.918026 C0.320224719,9.88687245 0,8.63276677 0,8.13112449 C0,6.3196385 2.02808989,5.0376638 4.10955056,5.53930607 C5.23033708,5.81799622 10.5941011,9.30162313 11.1544944,10.1376936 C11.3679775,10.4442528 11.5280899,11.1409781 11.5280899,11.6426204 C11.5280899,12.4508219 11.1811798,12.9524641 8.93960674,15.3491995 C5.84410112,18.6377433 4.85674157,19.2229926 3.22893258,18.7492193 Z" id="Path"></path>
                    <path d="M14.0365169,15.7672347 C11.5014045,14.6246051 13.369382,10.862288 16.4648876,10.862288 C17.7191011,10.862288 19,12.1163937 19,13.3147613 C19,15.4328065 16.2514045,16.7705192 14.0365169,15.7672347 Z" id="Path"></path>
                    <path d="M12.4087079,7.9639104 C9.92696629,6.79341176 10.5140449,4.14585531 13.4494382,3.30978485 C16.2780899,2.52945242 18.2261236,5.12127084 16.3848315,7.26718502 C15.5042135,8.29830456 13.7696629,8.60489775 12.4087079,7.9639104 Z" id="Path"></path>
                    <path d="M5.73735955,4.11798629 C5.41713483,3.9507722 4.96348315,3.39339189 4.72331461,2.8638806 C4.32303371,1.99994113 4.32303371,1.86059605 4.69662921,1.24747772 C5.44382022,0.0491100591 8.67275281,-0.452532216 9.44662921,0.495014304 C10.0870787,1.24747772 10.1671348,1.77698901 9.79353933,2.69666651 C9.20646067,4.17372432 7.20505618,4.8704497 5.73735955,4.11798629 Z" id="Path"></path>
                </g>
                <g id="Paw03" transform="translate(171.500000, 24.000000)">
                    <path d="M8.67030386,21.7175394 C8.47781761,21.5263327 8.31282939,20.8980819 8.31282939,20.2971463 C8.31282939,18.8494379 9.49524497,17.6475668 10.9251429,17.6475668 C13.5649544,17.6475668 14.802366,19.8874175 12.9324996,21.2804954 C11.9975663,21.9633767 9.19276656,22.2638445 8.67030386,21.7175394 Z" id="Path"></path>
                    <path d="M2.56573972,18.5762854 C1.65830451,17.9207193 1.16333984,16.5549567 1.16333984,14.5882585 C1.13584181,13.6322246 0.860861441,11.9113637 0.503386964,10.7368078 C0.173410523,9.56225197 -0.0465737704,8.25111984 0.00842230297,7.78676054 C0.145912486,6.80341144 1.41082217,5.9020081 2.62073579,5.9020081 C3.72065726,5.9020081 10.292688,8.52427237 10.8701468,9.20715369 C11.777582,10.2997638 11.4751036,11.3377434 9.33025675,14.6702042 C7.81786473,16.9920007 7.0479197,17.9480346 6.2229786,18.3850786 C4.95806891,19.1225904 3.47317493,19.1772209 2.56573972,18.5762854 Z" id="Path"></path>
                    <path d="M13.4274642,15.7081838 C11.8875742,14.5063127 12.9874956,12.0752552 15.4623189,11.3377434 C17.5246717,10.7094926 19.5320284,12.4303535 18.8720755,14.2877907 C18.2396206,16.0905974 14.9948523,16.9373702 13.4274642,15.7081838 Z" id="Path"></path>
                    <path d="M12.9874956,8.3330656 C11.8325781,7.8687063 11.3376134,7.24045549 11.3376134,6.25710639 C11.3376134,4.48161496 14.0599191,3.03390657 16.1222718,3.71678788 C17.2771894,4.07188617 17.6621619,4.67282173 17.6621619,5.95663861 C17.6621619,7.95065206 15.1873386,9.20715369 12.9874956,8.3330656 Z" id="Path"></path>
                    <path d="M5.48053161,4.37235395 C5.06806106,4.15383193 4.60059443,3.63484213 4.43560621,3.25242859 C4.0506337,2.24176424 4.73808462,1.34036089 6.58045307,0.520903312 C7.81786473,-0.0527169952 8.20283724,-0.107347501 8.75279797,0.138489774 C9.85271944,0.630164323 10.1276998,1.61351342 9.55024104,2.92464555 C8.75279797,4.64550648 7.10291577,5.24644204 5.48053161,4.37235395 Z" id="Path"></path>
                </g>
                <g id="Paw02" transform="translate(200.500000, 9.000000)">
                    <path d="M6.12541204,21.279061 C4.76287465,20.5433764 4.34577137,19.8076917 4.67945399,18.7722837 C4.90190908,18.036599 6.18102581,17.3826571 7.348915,17.3826571 C8.60022484,17.3826571 10.1017967,18.9085216 10.1017967,20.1891578 C10.1017967,22.0964884 8.46119041,22.5596973 6.12541204,21.279061 Z" id="Path"></path>
                    <path d="M13.661078,18.036599 C10.5745137,17.0829337 10.8525826,13.8949668 14.0503744,13.4045104 C16.1915046,13.0502918 17.8877246,14.1674426 17.8877246,15.9657829 C17.8877246,17.9276087 16.1080839,18.7995312 13.661078,18.036599 Z" id="Path"></path>
                    <path d="M0.981138229,15.8567926 C-0.131137189,15.0938603 -0.242364731,14.3036805 0.369386749,11.7151604 C0.675262489,10.4072765 0.953331343,8.33646044 1.00894511,7.11031933 C1.06455889,5.12124598 1.14797954,4.79427502 1.78753791,4.16758067 C2.7607789,3.18666779 4.17893006,3.0231823 5.70830876,3.70437181 C6.7649704,4.14033309 7.29330123,4.6852847 8.96171435,7.05582417 C11.3809134,10.5162669 11.8258236,11.6606652 11.0472308,12.6688257 C10.5745137,13.2682725 7.76601828,14.6851466 4.54041957,15.9112877 C3.20568906,16.4017442 1.73192414,16.3744966 0.981138229,15.8567926 Z" id="Path"></path>
                    <path d="M13.7166918,9.58984913 C12.8546783,8.82691689 12.6044163,8.3909556 12.6044163,7.73701368 C12.6044163,6.07491129 14.4396708,5.12124598 16.5529941,5.66619758 C18.1101797,6.10215887 19,7.02857659 19,8.2547177 C19,9.75333461 18.026759,10.570762 16.2193115,10.570762 C15.0236154,10.570762 14.6899328,10.4345241 13.7166918,9.58984913 Z" id="Path"></path>
                    <path d="M8.6836455,3.51363875 C7.59917697,2.42373554 7.54356319,0.97961379 8.60022484,0.298424285 C10.0739898,-0.627993441 13.7166918,0.761633149 13.7166918,2.28749764 C13.7166918,2.53272586 13.3552023,3.07767747 12.9102921,3.51363875 C12.2429268,4.16758067 11.8536304,4.30381857 10.7969688,4.30381857 C9.74030715,4.30381857 9.35101075,4.16758067 8.6836455,3.51363875 Z" id="Path"></path>
                </g>
                <g id="Paw01" transform="translate(219.500000, 41.000000)">
                    <path d="M4.9218083,20.4765919 C3.89313454,19.9788625 3.21637549,19.2322684 3.21637549,18.5409776 C3.21637549,17.9602934 4.59696395,16.633015 5.40907482,16.4671052 C7.08743727,16.1352856 8.90115153,17.6561254 8.90115153,19.4534815 C8.90115153,21.0019729 7.08743727,21.4720507 4.9218083,20.4765919 Z" id="Path"></path>
                    <path d="M13.3677613,19.0940103 C11.1479916,18.5409776 9.90275493,16.8542281 10.579514,15.3333883 C10.9584991,14.5038393 11.9059617,14.0890648 13.5031131,14.0890648 C14.5047165,14.0890648 14.991983,14.2549746 15.6416717,14.8080073 C16.5891344,15.6099046 16.9681194,17.0477895 16.4808529,17.9602934 C16.2372197,18.4303711 14.5859276,19.4258299 14.2610832,19.3152233 C14.2069425,19.2875717 13.8279574,19.2046168 13.3677613,19.0940103 Z" id="Path"></path>
                    <path d="M1.61922412,14.4208844 C-0.329841951,13.3148191 -0.519334486,11.6557212 1.05074652,9.2500292 C1.64629448,8.33752534 2.45840535,6.5954725 2.83739042,5.37880068 C3.703642,2.66894072 4.29918997,1.92234665 5.67977844,1.92234665 C7.08743727,1.92234665 7.95368886,2.75189562 10.2275993,6.26365292 C13.124128,10.7155657 12.9617058,11.2132951 8.08904067,13.397774 C4.73231577,14.8909622 2.97274223,15.1674785 1.61922412,14.4208844 Z" id="Path"></path>
                    <path d="M16.0747975,11.7663277 C15.6146013,11.5727663 14.9107719,10.992082 14.5047165,10.5220043 C12.826354,8.4757835 14.2069425,6.34660781 16.9139787,6.7613823 C18.4840597,6.98259535 20,8.3928286 20,9.60950042 C20,11.4621598 17.8885118,12.6235283 16.0747975,11.7663277 Z" id="Path"></path>
                    <path d="M11.554047,3.94091581 C10.2005289,3.0837152 9.82154384,1.14810095 10.8502176,0.429158508 C12.149595,-0.510996989 15.5063199,0.207945449 15.8311642,1.47992053 C16.0477271,2.44772766 15.5063199,3.47083806 14.5047165,3.94091581 C13.3136206,4.52160008 12.4744393,4.52160008 11.554047,3.94091581 Z" id="Path"></path>
                </g>
            </g>
        </g>
    </g>
</svg>