<?xml version="1.0" encoding="UTF-8"?>
<svg width="32px" height="32px" viewBox="0 0 32 32" version="1.1" xmlns="http://www.w3.org/2000/svg" xmlns:xlink="http://www.w3.org/1999/xlink">
    <title>small</title>
    <g id="Icons" stroke="none" stroke-width="1" fill="none" fill-rule="evenodd">
        <g id="Medium" transform="translate(32.000000, 0.000000)" stroke="#FFFFFF" stroke-width="2">
            <g id="Group">
                <circle id="Oval" cx="16" cy="16" r="15"></circle>
            </g>
        </g>
        <g id="Group" transform="translate(-0.000000, 0.000000)">
            <path d="M15.9870436,22 C15.4091088,22 14.8374558,21.9526462 14.2720848,21.8579387 C13.7067138,21.7632312 13.1947389,21.6016713 12.7361602,21.3732591 C12.2775815,21.1448468 11.8912446,20.8412256 11.5771496,20.4623955 C11.2630546,20.0835655 11.0745976,19.6044568 11.0117786,19.0250696 C10.9489596,18.6685237 11.1374166,18.4902507 11.5771496,18.4902507 L13.1036514,18.4902507 C13.2921084,18.4902507 13.4334511,18.5320334 13.5276796,18.6155989 C13.6219081,18.6991643 13.7004319,18.8189415 13.7632509,18.9749304 C13.8511975,19.1866295 13.9736945,19.356546 14.130742,19.4846797 C14.2877896,19.6128134 14.4636828,19.7103064 14.6584217,19.7771588 C14.8531606,19.8440111 15.0667452,19.8885794 15.2991755,19.9108635 C15.5316058,19.9331476 15.7608952,19.9442897 15.9870436,19.9442897 C16.2383196,19.9442897 16.4990185,19.9303621 16.7691402,19.902507 C17.0392619,19.8746518 17.2873969,19.8133705 17.5135453,19.718663 C17.7396938,19.6239554 17.9281508,19.4930362 18.0789164,19.3259053 C18.229682,19.1587744 18.3050648,18.9359331 18.3050648,18.6573816 C18.3050648,18.2228412 18.1542992,17.9052925 17.852768,17.7047354 C17.5512367,17.5041783 17.1994503,17.3426184 16.7974087,17.2200557 C16.6089517,17.1643454 16.3953671,17.1030641 16.1566549,17.0362117 C15.9179427,16.9693593 15.6541029,16.908078 15.3651355,16.8523677 C14.7997644,16.729805 14.2689439,16.5821727 13.7726737,16.4094708 C13.2764036,16.2367688 12.8429525,16.0111421 12.4723204,15.7325905 C12.1016883,15.454039 11.8095799,15.1169916 11.5959953,14.7214485 C11.3824107,14.3259053 11.2756184,13.8495822 11.2756184,13.2924791 C11.2756184,12.6685237 11.4106792,12.1476323 11.6808009,11.729805 C11.9509227,11.3119777 12.30585,10.9749304 12.745583,10.718663 C13.1853161,10.4623955 13.6878681,10.2785515 14.2532391,10.1671309 C14.8186101,10.0557103 15.396545,10 15.9870436,10 C16.5524146,10 17.1020809,10.0473538 17.6360424,10.1420613 C18.1700039,10.2367688 18.6474283,10.3983287 19.0683157,10.6267409 C19.489203,10.8551532 19.8409894,11.1559889 20.1236749,11.5292479 C20.4063604,11.902507 20.5853946,12.367688 20.6607774,12.9247911 C20.7235964,13.281337 20.5351394,13.45961 20.0954064,13.45961 L18.5877503,13.45961 C18.3992933,13.45961 18.2579505,13.4178273 18.163722,13.3342618 C18.0694935,13.2506964 17.9909698,13.1309192 17.9281508,12.9749304 C17.8402042,12.7520891 17.7082843,12.5682451 17.532391,12.4233983 C17.218296,12.178273 16.7031802,12.0557103 15.9870436,12.0557103 C15.7608952,12.0557103 15.5284649,12.0724234 15.2897527,12.1058496 C15.0510404,12.1392758 14.8343149,12.2033426 14.639576,12.2980501 C14.4448371,12.3927577 14.2846486,12.5181058 14.1590106,12.6740947 C14.0333726,12.8300836 13.9705536,13.0362117 13.9705536,13.2924791 C13.9705536,13.4930362 14.0113859,13.6629526 14.0930506,13.8022284 C14.1747154,13.9415042 14.2846486,14.0612813 14.4228504,14.1615599 C14.5610522,14.2618384 14.7149588,14.3454039 14.8845701,14.4122563 C15.0541814,14.4791086 15.2332155,14.54039 15.4216726,14.5961003 C15.5975658,14.6518106 15.7954456,14.7075209 16.0153121,14.7632312 C16.2351786,14.8189415 16.4770318,14.8746518 16.7408716,14.9303621 C17.343934,15.0640669 17.9061641,15.2200557 18.4275618,15.3983287 C18.9489596,15.5766017 19.4012564,15.8077994 19.7844523,16.091922 C20.1676482,16.3760446 20.4660385,16.724234 20.6796231,17.1364903 C20.8932077,17.5487465 21,18.0557103 21,18.6573816 C21,19.3147632 20.8523753,19.8579387 20.557126,20.2869081 C20.2618767,20.7158774 19.8786808,21.0584958 19.4075383,21.3147632 C18.9363958,21.5710306 18.4024342,21.7493036 17.8056537,21.8495822 C17.2088732,21.9498607 16.6026698,22 15.9870436,22 Z" id="Path" fill="#FFFFFF" fill-rule="nonzero"></path>
            <circle id="Oval" stroke="#FFFFFF" stroke-width="2" cx="16" cy="16" r="15"></circle>
        </g>
        <g id="Old" transform="translate(-32.000000, 0.000000)"></g>
    </g>
</svg>