<?xml version="1.0" encoding="UTF-8"?>
<svg width="80px" height="80px" viewBox="0 0 80 80" version="1.1" xmlns="http://www.w3.org/2000/svg" xmlns:xlink="http://www.w3.org/1999/xlink">
    <title>svg</title>
    <g id="Logo" stroke="none" stroke-width="1" fill="none" fill-rule="evenodd">
        <g id="SVG" transform="translate(-0.000000, 0.000000)" fill-rule="nonzero">
            <path d="M80,64 L80,16 C80,7.163444 72.836556,-3.55271368e-15 64,0 L16,0 C7.163444,1.77635684e-15 0,7.163444 0,16 L0,64 C1.77635684e-15,72.836556 7.163444,80 16,80 L64,80 C72.836556,80 80,72.836556 80,64 Z" id="Oval" fill="#FFFFFF"></path>
            <g id="Group" transform="translate(11.000000, 13.000000)">
                <path d="M0,26 L59,26 L59,46.4946996 C59,51.3109541 55.2473498,55 50.3480565,55 L8.65194346,55 C3.75265018,55 0,51.3109541 0,46.4946996 L0,26 Z" id="base" fill="#000000"></path>
                <g id="Border" transform="translate(4.000000, 0.000000)" fill="#FFB13B" stroke="#000000" stroke-width="12.6695333">
                    <g id="svgstar">
                        <path d="M7.97146493,22.1981062 C6.14788025,20.3745254 3.19126873,20.3745274 1.3676866,22.1981108 C-0.455895533,24.0216942 -0.455895533,26.9783058 1.3676866,28.8018892 C3.19126873,30.6254726 6.14788025,30.6254746 7.97146493,28.8018938 L43.0285351,28.8018938 C44.8521197,30.6254746 47.8087313,30.6254726 49.6323134,28.8018892 C51.4558955,26.9783058 51.4558955,24.0216942 49.6323134,22.1981108 C47.8087313,20.3745274 44.8521197,20.3745254 43.0285351,22.1981062 L7.97146493,22.1981062 Z" id="svgbar"></path>
                        <g id="svgbar-link" transform="translate(25.500000, 25.500000) rotate(45.000000) translate(-25.500000, -25.500000) translate(0.000000, 20.830422)">
                            <path d="M7.97146493,1.3676843 C6.14788025,-0.455896563 3.19126873,-0.455894502 1.3676866,1.3676889 C-0.455895533,3.1912723 -0.455895533,6.14788382 1.3676866,7.97146723 C3.19126873,9.79505063 6.14788025,9.79505269 7.97146493,7.97147183 L43.0285351,7.97147183 C44.8521197,9.79505269 47.8087313,9.79505063 49.6323134,7.97146723 C51.4558955,6.14788382 51.4558955,3.1912723 49.6323134,1.3676889 C47.8087313,-0.455894502 44.8521197,-0.455896563 43.0285351,1.3676843 L7.97146493,1.3676843 Z" id="svgbar"></path>
                        </g>
                        <g id="svgbar-link" transform="translate(25.500000, 25.500000) rotate(90.000000) translate(-25.500000, -25.500000) translate(0.000000, 20.830422)">
                            <path d="M7.97146493,1.3676843 C6.14788025,-0.455896563 3.19126873,-0.455894502 1.3676866,1.3676889 C-0.455895533,3.1912723 -0.455895533,6.14788382 1.3676866,7.97146723 C3.19126873,9.79505063 6.14788025,9.79505269 7.97146493,7.97147183 L43.0285351,7.97147183 C44.8521197,9.79505269 47.8087313,9.79505063 49.6323134,7.97146723 C51.4558955,6.14788382 51.4558955,3.1912723 49.6323134,1.3676889 C47.8087313,-0.455894502 44.8521197,-0.455896563 43.0285351,1.3676843 L7.97146493,1.3676843 Z" id="svgbar"></path>
                        </g>
                        <g id="svgbar-link" transform="translate(25.500000, 25.500000) rotate(135.000000) translate(-25.500000, -25.500000) translate(0.000000, 20.830422)">
                            <path d="M7.97146493,1.3676843 C6.14788025,-0.455896563 3.19126873,-0.455894502 1.3676866,1.3676889 C-0.455895533,3.1912723 -0.455895533,6.14788382 1.3676866,7.97146723 C3.19126873,9.79505063 6.14788025,9.79505269 7.97146493,7.97147183 L43.0285351,7.97147183 C44.8521197,9.79505269 47.8087313,9.79505063 49.6323134,7.97146723 C51.4558955,6.14788382 51.4558955,3.1912723 49.6323134,1.3676889 C47.8087313,-0.455894502 44.8521197,-0.455896563 43.0285351,1.3676843 L7.97146493,1.3676843 Z" id="svgbar"></path>
                        </g>
                    </g>
                </g>
                <g id="svgstar" transform="translate(4.000000, 0.000000)" fill="#FFB13B">
                    <path d="M7.97146493,22.1981062 C6.14788025,20.3745254 3.19126873,20.3745274 1.3676866,22.1981108 C-0.455895533,24.0216942 -0.455895533,26.9783058 1.3676866,28.8018892 C3.19126873,30.6254726 6.14788025,30.6254746 7.97146493,28.8018938 L43.0285351,28.8018938 C44.8521197,30.6254746 47.8087313,30.6254726 49.6323134,28.8018892 C51.4558955,26.9783058 51.4558955,24.0216942 49.6323134,22.1981108 C47.8087313,20.3745274 44.8521197,20.3745254 43.0285351,22.1981062 L7.97146493,22.1981062 Z" id="svgbar"></path>
                    <g id="svgbar-link" transform="translate(25.500000, 25.500000) rotate(45.000000) translate(-25.500000, -25.500000) translate(0.000000, 20.830422)">
                        <path d="M7.97146493,1.3676843 C6.14788025,-0.455896563 3.19126873,-0.455894502 1.3676866,1.3676889 C-0.455895533,3.1912723 -0.455895533,6.14788382 1.3676866,7.97146723 C3.19126873,9.79505063 6.14788025,9.79505269 7.97146493,7.97147183 L43.0285351,7.97147183 C44.8521197,9.79505269 47.8087313,9.79505063 49.6323134,7.97146723 C51.4558955,6.14788382 51.4558955,3.1912723 49.6323134,1.3676889 C47.8087313,-0.455894502 44.8521197,-0.455896563 43.0285351,1.3676843 L7.97146493,1.3676843 Z" id="svgbar"></path>
                    </g>
                    <g id="svgbar-link" transform="translate(25.500000, 25.500000) rotate(90.000000) translate(-25.500000, -25.500000) translate(0.000000, 20.830422)">
                        <path d="M7.97146493,1.3676843 C6.14788025,-0.455896563 3.19126873,-0.455894502 1.3676866,1.3676889 C-0.455895533,3.1912723 -0.455895533,6.14788382 1.3676866,7.97146723 C3.19126873,9.79505063 6.14788025,9.79505269 7.97146493,7.97147183 L43.0285351,7.97147183 C44.8521197,9.79505269 47.8087313,9.79505063 49.6323134,7.97146723 C51.4558955,6.14788382 51.4558955,3.1912723 49.6323134,1.3676889 C47.8087313,-0.455894502 44.8521197,-0.455896563 43.0285351,1.3676843 L7.97146493,1.3676843 Z" id="svgbar"></path>
                    </g>
                    <g id="svgbar-link" transform="translate(25.500000, 25.500000) rotate(135.000000) translate(-25.500000, -25.500000) translate(0.000000, 20.830422)">
                        <path d="M7.97146493,1.3676843 C6.14788025,-0.455896563 3.19126873,-0.455894502 1.3676866,1.3676889 C-0.455895533,3.1912723 -0.455895533,6.14788382 1.3676866,7.97146723 C3.19126873,9.79505063 6.14788025,9.79505269 7.97146493,7.97147183 L43.0285351,7.97147183 C44.8521197,9.79505269 47.8087313,9.79505063 49.6323134,7.97146723 C51.4558955,6.14788382 51.4558955,3.1912723 49.6323134,1.3676889 C47.8087313,-0.455894502 44.8521197,-0.455896563 43.0285351,1.3676843 L7.97146493,1.3676843 Z" id="svgbar"></path>
                    </g>
                </g>
                <g id="base-link" opacity="0.85" transform="translate(0.000000, 26.000000)" fill="#000000">
                    <path d="M0,0 L59,0 L59,20.4946996 C59,25.3109541 55.2473498,29 50.3480565,29 L8.65194346,29 C3.75265018,29 0,25.3109541 0,20.4946996 L0,0 Z" id="base"></path>
                </g>
                <g id="Text" transform="translate(7.000000, 27.000000)" fill="#FFFFFF">
                    <path d="M2.24644162,12.9975081 C0.8587737,11.619469 0,9.71646273 0,7.61451711 C0,3.40896457 3.4338405,0 7.66541237,0 C11.8990747,0 15.3329152,3.40896457 15.3329152,7.61451711 L10.8425406,7.61451711 C10.8425406,5.87265583 9.41933431,4.46097569 7.66541237,4.46097569 C5.91190853,4.46097569 4.49079275,5.87265583 4.49079275,7.61451711 C4.49079275,8.4846171 4.84659432,9.27289863 5.41897075,9.84189004 L5.42106124,9.84189004 C5.99594627,10.4150347 6.4746687,10.5807482 7.66541237,10.7684739 L7.66541237,10.7684739 C9.78349785,10.9873486 11.6992238,11.6215456 13.0864736,12.9995847 L13.0864736,12.9995847 C14.4741415,14.378039 15.3329152,16.2810453 15.3329152,18.382991 C15.3329152,22.5885435 11.8990747,25.9995847 7.66541237,25.9995847 C3.4338405,25.9995847 0,22.5885435 0,18.382991 L4.49079275,18.382991 C4.49079275,20.1248522 5.91190853,21.538609 7.66541237,21.538609 C9.41933431,21.538609 10.8425406,20.1248522 10.8425406,18.382991 C10.8425406,17.512891 10.486739,16.726686 9.91394448,16.155618 L9.91185399,16.155618 C9.33696897,15.58455 8.51206122,15.3876873 7.66541237,15.2311108 L7.66541237,15.2290342 C5.61255022,14.9162966 3.63369144,14.3759624 2.24644162,12.9975081 L2.24644162,12.9975081 L2.24644162,12.9975081 Z" id="S"></path>
                    <polygon id="V" points="30.6645762 0 25.2418425 25.9995847 20.7514679 25.9995847 15.3329152 0 19.8232899 0 23.0008362 15.2269576 26.1742015 0"></polygon>
                    <path d="M38.3324971,10.7684739 L45.9979095,10.7684739 L45.9979095,18.382991 L46,18.382991 C46,22.5889588 42.5661595,26 38.3324971,26 C34.0984167,26 30.6670848,22.5889588 30.6670848,18.382991 L30.6670848,18.382991 L30.6670848,7.61493243 L30.6649943,7.61493243 C30.6649943,3.40937989 34.0984167,0.000415322194 38.3324971,0.000415322194 C42.564069,0.000415322194 45.9979095,3.40937989 45.9979095,7.61493243 L41.5071168,7.61493243 C41.5071168,5.87473244 40.0839105,4.46097569 38.3324971,4.46097569 C36.5785752,4.46097569 35.1574594,5.87473244 35.1574594,7.61493243 L35.1574594,18.382991 L35.1574594,18.382991 C35.1574594,20.1252676 36.5785752,21.5369477 38.3324971,21.5369477 C40.0839105,21.5369477 41.5050263,20.1252676 41.5071168,18.3850676 L41.5071168,18.382991 L41.5071168,15.2315261 L38.3324971,15.2315261 L38.3324971,10.7684739 L38.3324971,10.7684739 Z" id="G"></path>
                </g>
            </g>
        </g>
    </g>
</svg>