<?xml version="1.0" encoding="UTF-8"?>
<svg width="80px" height="80px" viewBox="0 0 80 80" version="1.1" xmlns="http://www.w3.org/2000/svg" xmlns:xlink="http://www.w3.org/1999/xlink">
    <title>ts</title>
    <g id="Logo" stroke="none" stroke-width="1" fill="none" fill-rule="evenodd">
        <g id="TS" fill="#FFFFFF">
            <path d="M80,64 L80,16 C80,7.163444 72.836556,-3.55271368e-15 64,0 L16,0 C7.163444,1.77635684e-15 0,7.163444 0,16 L0,64 C1.77635684e-15,72.836556 7.163444,80 16,80 L64,80 C72.836556,80 80,72.836556 80,64 Z M44.4714875,42.5612308 L44.4714875,36 L15.9999696,36 L15.9999696,42.5612308 L26.164781,42.5612308 L26.164781,71.7753846 L34.256812,71.7753846 L34.256812,42.5612308 L44.4714875,42.5612308 Z M47.6975908,71.004 C49.0024529,71.6692308 50.5458348,72.1683077 52.3274325,72.5009231 C54.1093343,72.8335385 55.98707,73 57.9612481,73 C59.8852275,73 61.7127645,72.8169231 63.4444677,72.4510769 C65.1758666,72.0852308 66.6939971,71.4821538 67.9988591,70.6421538 C69.3037212,69.8021538 70.3369018,68.7046154 71.0980966,67.3489231 C71.8592915,65.9932308 72.239889,64.3175385 72.239889,62.3215385 C72.239889,60.8744615 72.0223612,59.6064615 71.5873058,58.5169231 C71.1525546,57.4273846 70.5252229,56.4584615 69.7053108,55.6101538 C68.8857029,54.7618462 67.902721,54.0009231 66.7566694,53.3273846 C65.6106178,52.6538462 64.3185336,52.0175385 62.8798083,51.4187692 C61.8256356,50.9861538 60.8803788,50.5661538 60.044038,50.1587692 C59.2073929,49.7513846 58.4963967,49.3353846 57.9110494,48.9113846 C57.3253979,48.4870769 56.8739138,48.0381538 56.5559887,47.564 C56.2380635,47.0901538 56.0792531,46.5535385 56.0792531,45.9547692 C56.0792531,45.4058462 56.2213306,44.9110769 56.50579,44.4704615 C56.7902493,44.0295385 57.1915347,43.6510769 57.7102546,43.3350769 C58.2289745,43.0190769 58.8645205,42.7738462 59.6175011,42.5990769 C60.3701774,42.4246154 61.2068225,42.3372308 62.1268278,42.3372308 C62.7961438,42.3372308 63.5028807,42.3870769 64.2473427,42.4867692 C64.9918047,42.5867692 65.7405259,42.7406154 66.4932023,42.9483077 C67.2461828,43.1563077 67.9781712,43.4181538 68.6891673,43.7344615 C69.4001635,44.0504615 70.0567017,44.4163077 70.6590862,44.832 L70.6590862,37.3723077 C69.4375844,36.9064615 68.1035158,36.5612308 66.656272,36.3369231 C65.2093324,36.1123077 63.5488201,36 61.6750395,36 C59.7680972,36 57.9612481,36.2036923 56.2547964,36.6113846 C54.5483448,37.0187692 53.0469472,37.6550769 51.7502995,38.52 C50.4536518,39.3849231 49.4289898,40.4867692 48.6763134,41.8255385 C47.9233329,43.1646154 47.5469947,44.7655385 47.5469947,46.6283077 C47.5469947,49.0070769 48.2369987,51.0363077 49.6173109,52.716 C50.9976232,54.396 53.0928866,55.8181538 55.9034055,56.9824615 C57.007777,57.4316923 58.0363941,57.8723077 58.9901694,58.3049231 C59.9436405,58.7372308 60.7675077,59.1864615 61.461771,59.652 C62.1560343,60.1178462 62.7039608,60.6249231 63.1055504,61.1738462 C63.50714,61.7227692 63.7079348,62.3464615 63.7079348,63.0452308 C63.7079348,63.5609231 63.5822859,64.0390769 63.3312924,64.4796923 C63.0802989,64.9206154 62.6997015,65.3030769 62.1895001,65.6273846 C61.6792987,65.9516923 61.0437527,66.2055385 60.2825579,66.3883077 C59.521363,66.5713846 58.6302599,66.6627692 57.6098572,66.6627692 C55.8699397,66.6627692 54.1467551,66.3593846 52.4403035,65.7523077 C50.734156,65.1452308 49.153049,64.2344615 47.6975908,63.0203077 L47.6975908,71.004 Z" id="Shape"></path>
        </g>
    </g>
</svg>