<?xml version="1.0" encoding="UTF-8"?>
<svg width="80px" height="80px" viewBox="0 0 80 80" version="1.1" xmlns="http://www.w3.org/2000/svg" xmlns:xlink="http://www.w3.org/1999/xlink">
    <title>ts</title>
    <g id="Logo" stroke="none" stroke-width="1" fill="none" fill-rule="evenodd">
        <g id="TS">
            <path d="M80,64 L80,16 C80,7.163444 72.836556,-3.55271368e-15 64,0 L16,0 C7.163444,1.77635684e-15 0,7.163444 0,16 L0,64 C1.77635684e-15,72.836556 7.163444,80 16,80 L64,80 C72.836556,80 80,72.836556 80,64 Z" id="Oval" fill="#3278C6"></path>
            <g id="Group" transform="translate(15.999970, 36.000000)" fill="#FFFFFF">
                <polygon id="Path" points="28.4715179 6.56123077 28.4715179 0 0 0 0 6.56123077 10.1648115 6.56123077 10.1648115 35.7753846 18.2568424 35.7753846 18.2568424 6.56123077"></polygon>
                <path d="M31.6976213,35.004 C33.0024833,35.6692308 34.5458653,36.1683077 36.3274629,36.5009231 C38.1093647,36.8335385 39.9871005,37 41.9612785,37 C43.8852579,37 45.712795,36.8169231 47.4444981,36.4510769 C49.175897,36.0852308 50.6940275,35.4821538 51.9988895,34.6421538 C53.3037516,33.8021538 54.3369322,32.7046154 55.0981271,31.3489231 C55.8593219,29.9932308 56.2399194,28.3175385 56.2399194,26.3215385 C56.2399194,24.8744615 56.0223917,23.6064615 55.5873362,22.5169231 C55.152585,21.4273846 54.5252534,20.4584615 53.7053412,19.6101538 C52.8857333,18.7618462 51.9027514,18.0009231 50.7566998,17.3273846 C49.6106482,16.6538462 48.318564,16.0175385 46.8798388,15.4187692 C45.825666,14.9861538 44.8804092,14.5661538 44.0440684,14.1587692 C43.2074233,13.7513846 42.4964271,13.3353846 41.9110798,12.9113846 C41.3254283,12.4870769 40.8739442,12.0381538 40.5560191,11.564 C40.238094,11.0901538 40.0792835,10.5535385 40.0792835,9.95476923 C40.0792835,9.40584615 40.2213611,8.91107692 40.5058204,8.47046154 C40.7902797,8.02953846 41.1915651,7.65107692 41.710285,7.33507692 C42.229005,7.01907692 42.864551,6.77384615 43.6175315,6.59907692 C44.3702078,6.42461538 45.2068529,6.33723077 46.1268582,6.33723077 C46.7961743,6.33723077 47.5029111,6.38707692 48.2473731,6.48676923 C48.9918351,6.58676923 49.7405564,6.74061538 50.4932327,6.94830769 C51.2462132,7.15630769 51.9782016,7.41815385 52.6891978,7.73446154 C53.4001939,8.05046154 54.0567321,8.41630769 54.6591166,8.832 L54.6591166,1.37230769 C53.4376148,0.906461538 52.1035462,0.561230769 50.6563024,0.336923077 C49.2093628,0.112307692 47.5488506,0 45.6750699,0 C43.7681276,0 41.9612785,0.203692308 40.2548269,0.611384615 C38.5483752,1.01876923 37.0469776,1.65507692 35.7503299,2.52 C34.4536822,3.38492308 33.4290202,4.48676923 32.6763439,5.82553846 C31.9233633,7.16461538 31.5470252,8.76553846 31.5470252,10.6283077 C31.5470252,13.0070769 32.2370291,15.0363077 33.6173414,16.716 C34.9976536,18.396 37.092917,19.8181538 39.9034359,20.9824615 C41.0078074,21.4316923 42.0364245,21.8723077 42.9901998,22.3049231 C43.943671,22.7372308 44.7675382,23.1864615 45.4618014,23.652 C46.1560647,24.1178462 46.7039912,24.6249231 47.1055808,25.1738462 C47.5071704,25.7227692 47.7079652,26.3464615 47.7079652,27.0452308 C47.7079652,27.5609231 47.5823164,28.0390769 47.3313228,28.4796923 C47.0803293,28.9206154 46.6997319,29.3030769 46.1895305,29.6273846 C45.6793292,29.9516923 45.0437832,30.2055385 44.2825883,30.3883077 C43.5213934,30.5713846 42.6302904,30.6627692 41.6098876,30.6627692 C39.8699701,30.6627692 38.1467856,30.3593846 36.4403339,29.7523077 C34.7341865,29.1452308 33.1530794,28.2344615 31.6976213,27.0203077 L31.6976213,35.004 Z" id="Path"></path>
            </g>
        </g>
    </g>
</svg>