<?xml version="1.0" encoding="UTF-8"?>
<svg width="32px" height="32px" viewBox="0 0 32 32" version="1.1" xmlns="http://www.w3.org/2000/svg" xmlns:xlink="http://www.w3.org/1999/xlink">
    <title>versed</title>
    <g id="Icon" stroke="none" stroke-width="1" fill="none" fill-rule="evenodd" stroke-linecap="round">
        <g id="Group" stroke="#FFFFFF" transform="translate(6.000000, 8.000000)">
            <path d="M2.89807657,5 C1.13343566,5.39115285 0.251115201,5.58672576 0.0411960529,6.24803716 C-0.168723095,6.90932044 0.432789247,7.59845736 1.63580676,8.97659063 L1.94704095,9.33314255 C2.28890211,9.72476631 2.45982909,9.92057819 2.53672292,10.1628479 C2.61362393,10.4051177 2.58778221,10.6663642 2.53609159,11.1889275 L2.48904272,11.6646112 C2.30716062,13.5033873 2.21621957,14.4227754 2.7657902,14.8314782 C3.31536083,15.2401811 4.14147805,14.8675341 5.79372684,14.1223103 L6.22116986,13.9294504 C6.69065411,13.717684 6.92539624,13.6117656 7.17427167,13.6117656 C7.42314711,13.6117656 7.65788923,13.717684 8.12737348,13.9294504 L8.5548165,14.1223103 C10.2070509,14.8675341 11.0331682,15.2401811 11.582789,14.8314782 C12.1323381,14.4227754 12.0413684,13.5033873 11.8595006,11.6646112 M12.4026366,9 C13.5774059,7.62759954 14.1647555,6.94132932 13.9597716,6.28279687 C13.7547877,5.62423643 12.8931688,5.42947707 11.1700711,5.03995136 L10.7242347,4.93917707 C10.2345431,4.82848494 9.98976744,4.77314237 9.79319028,4.6240457 C9.59654305,4.47494904 9.47051229,4.24897331 9.21831065,3.79703584 L8.9887371,3.38558168 C8.10140765,1.79519156 7.65774293,1 6.99438256,1 C6.33102219,1 5.88735746,1.79519856 5,3.38558868" id="beginners" stroke-width="2"></path>
            <path d="M14.6666667,11.8873145 L15.0591128,12.0877652 C16.5760707,12.8623203 17.3345497,13.2496344 17.8391704,12.8248454 C18.3437252,12.4000564 18.2602036,11.444482 18.0932262,9.53333333 M18.5801214,6.93333333 C19.6243608,5.7439196 20.1464493,5.14915208 19.9642414,4.57842396 C19.7820335,4.00767157 19.01615,3.83888013 17.4845077,3.50129117 L17.0882086,3.41395346 C16.6529272,3.31802028 16.4353488,3.27005672 16.2606136,3.14083961 C16.085816,3.0116225 15.9737887,2.81577687 15.7496095,2.42409773 L15.5455441,2.06750412 C14.7568068,0.689166018 14.3624382,0 13.7727845,0 C13.1831308,0 12.7887622,0.689172084 12,2.06751019" id="beginners"></path>
        </g>
    </g>
</svg>