<?xml version="1.0" encoding="UTF-8"?>
<svg width="32px" height="32px" viewBox="0 0 32 32" version="1.1" xmlns="http://www.w3.org/2000/svg" xmlns:xlink="http://www.w3.org/1999/xlink">
    <title>versed</title>
    <g id="Icons" stroke="none" stroke-width="1" fill="none" fill-rule="evenodd">
        <g id="Expert" transform="translate(32.000000, 0.000000)" stroke="#FFFFFF" stroke-width="2">
            <g id="Group">
                <circle id="Oval" cx="16" cy="16" r="15"></circle>
            </g>
        </g>
        <g id="Group" transform="translate(-0.000000, 0.000000)" stroke="#FFFFFF">
            <path d="M8.89807657,13 C7.13343566,13.3911529 6.2511152,13.5867258 6.04119605,14.2480372 C5.8312769,14.9093204 6.43278925,15.5984574 7.63580676,16.9765906 L7.94704095,17.3331426 C8.28890211,17.7247663 8.45982909,17.9205782 8.53672292,18.1628479 C8.61362393,18.4051177 8.58778221,18.6663642 8.53609159,19.1889275 L8.48904272,19.6646112 C8.30716062,21.5033873 8.21621957,22.4227754 8.7657902,22.8314782 C9.31536083,23.2401811 10.141478,22.8675341 11.7937268,22.1223103 L12.2211699,21.9294504 C12.6906541,21.717684 12.9253962,21.6117656 13.1742717,21.6117656 C13.4231471,21.6117656 13.6578892,21.717684 14.1273735,21.9294504 L14.5548165,22.1223103 C16.2070509,22.8675341 17.0331682,23.2401811 17.582789,22.8314782 C18.1323381,22.4227754 18.0413684,21.5033873 17.8595006,19.6646112 M18.4026366,17 C19.5774059,15.6275995 20.1647555,14.9413293 19.9597716,14.2827969 C19.7547877,13.6242364 18.8931688,13.4294771 17.1700711,13.0399514 L16.7242347,12.9391771 C16.2345431,12.8284849 15.9897674,12.7731424 15.7931903,12.6240457 C15.5965431,12.474949 15.4705123,12.2489733 15.2183106,11.7970358 L14.9887371,11.3855817 C14.1014077,9.79519156 13.6577429,9 12.9943826,9 C12.3310222,9 11.8873575,9.79519856 11,11.3855887" id="beginners" stroke-width="2" stroke-linecap="round"></path>
            <path d="M20.6666667,19.8873145 L21.0591128,20.0877652 C22.5760707,20.8623203 23.3345497,21.2496344 23.8391704,20.8248454 C24.3437252,20.4000564 24.2602036,19.444482 24.0932262,17.5333333 M24.5801214,14.9333333 C25.6243608,13.7439196 26.1464493,13.1491521 25.9642414,12.578424 C25.7820335,12.0076716 25.01615,11.8388801 23.4845077,11.5012912 L23.0882086,11.4139535 C22.6529272,11.3180203 22.4353488,11.2700567 22.2606136,11.1408396 C22.085816,11.0116225 21.9737887,10.8157769 21.7496095,10.4240977 L21.5455441,10.0675041 C20.7568068,8.68916602 20.3624382,8 19.7727845,8 C19.1831308,8 18.7887622,8.68917208 18,10.0675102" id="beginners" stroke-linecap="round"></path>
            <circle id="Oval" stroke-width="2" cx="16" cy="16" r="15"></circle>
        </g>
    </g>
</svg>