<?xml version="1.0" encoding="UTF-8"?>
<svg width="80px" height="80px" viewBox="0 0 80 80" version="1.1" xmlns="http://www.w3.org/2000/svg" xmlns:xlink="http://www.w3.org/1999/xlink">
    <title>vue</title>
    <g id="Logo" stroke="none" stroke-width="1" fill="none" fill-rule="evenodd">
        <g id="Vue" fill-rule="nonzero">
            <path d="M80,64 L80,16 C80,7.163444 72.836556,-3.55271368e-15 64,0 L16,0 C7.163444,1.77635684e-15 0,7.163444 0,16 L0,64 C1.77635684e-15,72.836556 7.163444,80 16,80 L64,80 C72.836556,80 80,72.836556 80,64 Z" id="Oval" fill="#FFFFFF"></path>
            <g id="Group" transform="translate(12.944568, 17.000000)">
                <path d="M32.9527273,0 L26.7636364,10.6218182 L20.5745455,0 L0,0 L26.7636364,46 L53.5272727,0 C53.5272727,0 32.9527273,0 32.9527273,0 Z" id="Path" fill="#42B883"></path>
                <polygon id="Path" fill="#35495E" points="32.9527273 0 26.7636364 10.6218182 20.5745455 0 10.7054545 0 26.7636364 27.6 42.8218182 0"></polygon>
            </g>
        </g>
    </g>
</svg>