<?xml version="1.0" encoding="UTF-8"?>
<svg width="32px" height="32px" viewBox="0 0 32 32" version="1.1" xmlns="http://www.w3.org/2000/svg" xmlns:xlink="http://www.w3.org/1999/xlink">
    <title>young</title>
    <g id="Icon" stroke="none" stroke-width="1" fill="none" fill-rule="evenodd">
        <g id="Young" fill="#FFFFFF" fill-rule="nonzero">
            <g id="Group" transform="translate(14.943829, 15.870245) rotate(14.000000) translate(-14.943829, -15.870245) translate(2.927444, 5.272107)">
                <path d="M21.4980858,8.44292867 C21.9747809,9.13228883 22.1994356,9.49828493 22.1994356,9.88005489 C22.1994356,10.6340026 21.589758,10.9995724 20.7684221,10.9995724 C20.4063752,10.9995724 20.1726693,10.9991461 19.5820223,10.7169219 C19.5820223,10.7169219 19.1993202,10.3952631 18.3037183,10.428303 C17.3997615,10.3954763 17.0168273,10.720972 17.0168273,10.720972 C16.4261803,11.0029829 16.2008294,10.9999993 15.8392466,10.9999993 C15.0179108,10.9999993 14.407769,10.6348552 14.407769,9.88048121 C14.407769,9.49871125 14.6331199,9.13314147 15.1095829,8.44335499 C15.1095829,8.44335499 16.0102906,7.06953735 16.7907801,6.42323555 C17.3547378,5.95684099 18.1770019,5.95854627 18.1770019,5.95854627 L18.4306668,5.95854627 L18.4306668,5.95833298 C18.4306668,5.95833298 19.2889036,5.95641467 19.8175849,6.42323555 C20.573938,7.09298497 21.4980858,8.44314183 21.4980858,8.44292867 Z M16.6994356,4.58333306 C17.4588773,4.58333306 18.0744356,3.55725304 18.0744356,2.29166653 C18.0744356,1.02608002 17.4588773,0 16.6994356,0 C15.9399939,0 15.3244356,1.02608002 15.3244356,2.29166653 C15.3244356,3.55725304 15.9399939,4.58333306 16.6994356,4.58333306 Z M15.2102934,6.35031429 C15.8268056,6.09863239 15.9674255,5.20625113 15.5240884,4.35704961 C15.0807513,3.50784809 14.2216585,3.02327547 13.6051464,3.27475747 C12.9886342,3.52623946 12.8482404,4.41882063 13.2913514,5.26802215 C13.7346885,6.11722367 14.5937813,6.60159638 15.2102934,6.35031429 Z M20.3659997,4.58333306 C21.1253847,4.58333306 21.7411023,3.55725304 21.7411023,2.29166653 C21.7411023,1.02608002 21.1253847,0 20.3659997,0 C19.6066147,0 18.9911023,1.02608002 18.9911023,2.29166653 C18.9911023,3.55725304 19.6066147,4.58333306 20.3659997,4.58333306 Z M23.4601429,3.27483811 C22.8434712,3.02318448 21.9846971,3.50770268 21.5414078,4.35700871 C21.0981185,5.20631475 21.2387233,6.09859579 21.855395,6.35024942 C22.4720667,6.60170318 23.3308408,6.11718498 23.7741301,5.26807882 C24.2174194,4.41897267 24.0768147,3.52649175 23.4601429,3.27483811 Z" id="Shape"></path>
                <path d="M10.6253235,16.4791964 C11.1020186,17.1685565 11.3266733,17.5345526 11.3266733,17.9163226 C11.3266733,18.6702703 10.7169956,19.0358401 9.8956598,19.0358401 C9.53361291,19.0358401 9.29990701,19.0354137 8.70926001,18.7531896 C8.70926001,18.7531896 8.32655789,18.4315308 7.43095602,18.4645707 C6.52699922,18.431744 6.14406501,18.7572397 6.14406501,18.7572397 C5.55341802,19.0392506 5.32806704,19.036267 4.96648432,19.036267 C4.14514847,19.036267 3.53500664,18.6711229 3.53500664,17.9167489 C3.53500664,17.5349789 3.76035762,17.1694092 4.2368206,16.4796227 C4.2368206,16.4796227 5.13752826,15.105805 5.91801779,14.4595032 C6.48197544,13.9931087 7.30423961,13.994814 7.30423961,13.994814 L7.55790451,13.994814 L7.55790451,13.9946007 C7.55790451,13.9946007 8.41614129,13.9926824 8.94482257,14.4595032 C9.70117564,15.1292527 10.6253235,16.4794095 10.6253235,16.4791964 Z M5.82667331,12.6196008 C6.58611502,12.6196008 7.20167331,11.5935207 7.20167331,10.3279342 C7.20167331,9.06234771 6.58611502,8.03626769 5.82667331,8.03626769 C5.0672316,8.03626769 4.45167331,9.06234771 4.45167331,10.3279342 C4.45167331,11.5935207 5.0672316,12.6196008 5.82667331,12.6196008 Z M4.33753112,14.386582 C4.95404325,14.1349001 5.09466318,13.2425188 4.65132608,12.3933173 C4.20798897,11.5441158 3.34889616,11.0595432 2.73238403,11.3110252 C2.1158719,11.5625071 1.97547805,12.4550883 2.41858907,13.3042898 C2.86192618,14.1534914 3.72101899,14.6378641 4.33753112,14.386582 Z M9.49323736,12.6196008 C10.2526224,12.6196008 10.86834,11.5935207 10.86834,10.3279342 C10.86834,9.06234771 10.2526224,8.03626769 9.49323736,8.03626769 C8.73385233,8.03626769 8.11833998,9.06234771 8.11833998,10.3279342 C8.11833998,11.5935207 8.73385233,12.6196008 9.49323736,12.6196008 Z M12.5873806,11.3111058 C11.9707089,11.0594522 11.1119348,11.5439704 10.6686455,12.3932764 C10.2253562,13.2425824 10.365961,14.1348635 10.9826327,14.3865171 C11.5993044,14.6379709 12.4580785,14.1534527 12.9013678,13.3043465 C13.3446571,12.4552404 13.2040523,11.5627594 12.5873806,11.3111058 Z" id="Shape" transform="translate(7.660007, 13.536268) rotate(-35.000000) translate(-7.660007, -13.536268) "></path>
            </g>
        </g>
    </g>
</svg>