<?xml version="1.0" encoding="UTF-8"?>
<svg width="32px" height="32px" viewBox="0 0 32 32" version="1.1" xmlns="http://www.w3.org/2000/svg" xmlns:xlink="http://www.w3.org/1999/xlink">
    <title>young</title>
    <g id="Icons" stroke="none" stroke-width="1" fill="none" fill-rule="evenodd">
        <g id="MIddle" transform="translate(32.000000, 0.000000)" stroke="#FFFFFF" stroke-width="2">
            <g id="Group">
                <circle id="Oval" cx="16" cy="16" r="15"></circle>
            </g>
        </g>
        <g id="Young" transform="translate(-0.346019, 0.000000)">
            <g id="Group" transform="translate(0.000000, 0.395482)">
                <path d="M23.6655772,15.5069574 C24.1422723,16.1963175 24.366927,16.5623136 24.366927,16.9440836 C24.366927,17.6980313 23.7572493,18.0636011 22.9359135,18.0636011 C22.5738666,18.0636011 22.3401607,18.0631747 21.7495137,17.7809506 C21.7495137,17.7809506 21.3668116,17.4592918 20.4712097,17.4923317 C19.5672529,17.459505 19.1843187,17.7850007 19.1843187,17.7850007 C18.5936717,18.0670116 18.3683207,18.064028 18.006738,18.064028 C17.1854021,18.064028 16.5752603,17.6988839 16.5752603,16.9445099 C16.5752603,16.5627399 16.8006113,16.1971702 17.2770743,15.5073837 C17.2770743,15.5073837 18.1777819,14.133566 18.9582715,13.4872642 C19.5222291,13.0208697 20.3444933,13.022575 20.3444933,13.022575 L20.5981582,13.022575 L20.5981582,13.0223617 C20.5981582,13.0223617 21.456395,13.0204434 21.9850762,13.4872642 C22.7414293,14.1570137 23.6655772,15.5071705 23.6655772,15.5069574 Z M18.866927,11.6473618 C19.6263687,11.6473618 20.241927,10.6212817 20.241927,9.35569522 C20.241927,8.09010871 19.6263687,7.06402869 18.866927,7.06402869 C18.1074853,7.06402869 17.491927,8.09010871 17.491927,9.35569522 C17.491927,10.6212817 18.1074853,11.6473618 18.866927,11.6473618 Z M17.3777848,13.414343 C17.9942969,13.1626611 18.1349169,12.2702798 17.6915798,11.4210783 C17.2482426,10.5718768 16.3891498,10.0873042 15.7726377,10.3387862 C15.1561256,10.5902682 15.0157317,11.4828493 15.4588427,12.3320508 C15.9021799,13.1812524 16.7612727,13.6656251 17.3777848,13.414343 Z M22.533491,11.6473618 C23.2928761,11.6473618 23.9085937,10.6212817 23.9085937,9.35569522 C23.9085937,8.09010871 23.2928761,7.06402869 22.533491,7.06402869 C21.774106,7.06402869 21.1585937,8.09010871 21.1585937,9.35569522 C21.1585937,10.6212817 21.774106,11.6473618 22.533491,11.6473618 Z M25.6276343,10.3388668 C25.0109626,10.0872132 24.1521885,10.5717314 23.7088992,11.4210374 C23.2656099,12.2703434 23.4062146,13.1626245 24.0228863,13.4142781 C24.639558,13.6657319 25.4983322,13.1812137 25.9416215,12.3321075 C26.3849108,11.4830014 26.244306,10.5905204 25.6276343,10.3388668 Z" id="Shape" fill="#FFFFFF" fill-rule="nonzero"></path>
                <path d="M12.7928149,23.543225 C13.2695099,24.2325852 13.4941647,24.5985813 13.4941647,24.9803513 C13.4941647,25.734299 12.884487,26.0998688 12.0631511,26.0998688 C11.7011043,26.0998688 11.4673984,26.0994424 10.8767514,25.8172183 C10.8767514,25.8172183 10.4940492,25.4955595 9.59844736,25.5285994 C8.69449056,25.4957727 8.31155636,25.8212683 8.31155636,25.8212683 C7.72090936,26.1032793 7.49555839,26.1002957 7.13397567,26.1002957 C6.31263982,26.1002957 5.70249799,25.7351516 5.70249799,24.9807776 C5.70249799,24.5990076 5.92784897,24.2334378 6.40431195,23.5436514 C6.40431195,23.5436514 7.30501961,22.1698337 8.08550914,21.5235319 C8.64946679,21.0571374 9.47173096,21.0588426 9.47173096,21.0588426 L9.72539586,21.0588426 L9.72539586,21.0586294 C9.72539586,21.0586294 10.5836326,21.056711 11.1123139,21.5235319 C11.868667,22.1932814 12.7928149,23.5434382 12.7928149,23.543225 Z M7.99416466,19.6836294 C8.75360637,19.6836294 9.36916466,18.6575494 9.36916466,17.3919629 C9.36916466,16.1263764 8.75360637,15.1002964 7.99416466,15.1002964 C7.23472295,15.1002964 6.61916466,16.1263764 6.61916466,17.3919629 C6.61916466,18.6575494 7.23472295,19.6836294 7.99416466,19.6836294 Z M6.50502247,21.4506107 C7.1215346,21.1989288 7.26215453,20.3065475 6.81881742,19.457346 C6.37548032,18.6081445 5.51638751,18.1235718 4.89987538,18.3750538 C4.28336324,18.6265358 4.14296939,19.519117 4.58608042,20.3683185 C5.02941753,21.21752 5.88851034,21.7018928 6.50502247,21.4506107 Z M11.6607287,19.6836294 C12.4201137,19.6836294 13.0358313,18.6575494 13.0358313,17.3919629 C13.0358313,16.1263764 12.4201137,15.1002964 11.6607287,15.1002964 C10.9013437,15.1002964 10.2858313,16.1263764 10.2858313,17.3919629 C10.2858313,18.6575494 10.9013437,19.6836294 11.6607287,19.6836294 Z M14.754872,18.3751345 C14.1382003,18.1234809 13.2794261,18.6079991 12.8361368,19.4573051 C12.3928475,20.3066111 12.5334523,21.1988922 13.150124,21.4505458 C13.7667957,21.7019996 14.6255698,21.2174814 15.0688591,20.3683752 C15.5121484,19.5192691 15.3715437,18.6267881 14.754872,18.3751345 Z" id="Shape" fill="#FFFFFF" fill-rule="nonzero" transform="translate(9.827498, 20.600296) rotate(-35.000000) translate(-9.827498, -20.600296) "></path>
                <circle id="Oval" stroke="#FFFFFF" stroke-width="2" cx="16" cy="16" r="15"></circle>
            </g>
        </g>
    </g>
</svg>